<svg width="3163" height="752" viewBox="0 0 3163 752" fill="none" xmlns="http://www.w3.org/2000/svg">
<path d="M602.979 81.1377C545.539 79.9924 489.017 95.6558 440.36 126.202C391.702 156.748 353.031 200.846 329.098 253.075C328.808 253.718 328.34 254.264 327.749 254.65C327.159 255.036 326.47 255.246 325.764 255.253C325.058 255.261 324.365 255.066 323.766 254.692C323.168 254.318 322.688 253.78 322.385 253.143C312.823 233.578 298.454 216.776 280.67 204.208C262.886 191.641 242.225 183.752 220.591 181.27C220.001 181.207 219.404 181.288 218.851 181.504C218.298 181.72 217.806 182.065 217.415 182.512C217.024 182.958 216.746 183.493 216.605 184.07C216.464 184.646 216.464 185.249 216.605 185.825C224.682 219.778 242.342 250.694 267.484 274.899C268.07 275.457 268.456 276.192 268.585 276.99C268.714 277.789 268.577 278.607 268.196 279.32C267.816 280.033 267.212 280.602 266.477 280.94C265.742 281.277 264.917 281.364 264.128 281.188C201.884 267.54 136.769 278.911 82.8323 312.845C82.2969 313.177 81.8551 313.638 81.5487 314.188C81.2424 314.738 81.0815 315.359 81.0815 315.988C81.0815 316.618 81.2424 317.238 81.5487 317.789C81.8551 318.339 82.2969 318.8 82.8323 319.132C114.736 339.207 150.875 351.579 188.388 355.267C225.901 358.955 263.757 353.858 298.959 340.38C299.554 340.145 300.199 340.068 300.832 340.157C301.465 340.246 302.065 340.497 302.572 340.886C303.079 341.275 303.477 341.789 303.726 342.378C303.975 342.967 304.067 343.611 303.994 344.246C297.62 403.308 309.238 462.918 337.325 515.263C365.412 567.609 408.659 610.248 461.397 637.592C514.134 664.936 573.903 675.708 632.869 668.498C691.835 661.289 747.247 636.433 791.843 597.189C836.44 557.945 868.14 506.143 882.789 448.573C897.437 391.002 894.351 330.35 873.935 274.563C853.519 218.777 816.726 170.458 768.377 135.943C720.028 101.427 662.372 82.3253 602.979 81.1377ZM351.538 323.323H842.489C843.345 323.321 844.175 323.616 844.838 324.157C845.501 324.698 845.956 325.452 846.126 326.291C857.526 383.555 848.848 442.997 821.553 494.612C821.239 495.212 820.802 495.714 820.222 496.064C819.643 496.414 818.978 496.599 818.301 496.597H375.775C375.098 496.599 374.434 496.414 373.854 496.064C373.275 495.714 372.802 495.212 372.489 494.612C345.194 442.997 336.516 383.555 347.916 326.291C348.085 325.452 348.54 324.698 349.203 324.157C349.866 323.616 350.682 323.321 351.538 323.323Z" fill="black"/>
<path d="M522.967 409.961C523.003 405.266 522.11 400.609 520.338 396.26C518.567 391.912 515.952 387.957 512.644 384.624C509.337 381.29 505.402 378.643 501.067 376.838C496.733 375.033 492.083 374.103 487.387 374.103C482.692 374.103 478.042 375.033 473.707 376.838C469.373 378.643 465.438 381.29 462.13 384.624C458.823 387.957 456.208 391.912 454.436 396.26C452.665 400.609 451.771 405.266 451.808 409.961C451.771 414.657 452.665 419.313 454.436 423.662C456.208 428.011 458.823 431.965 462.13 435.299C465.438 438.632 469.373 441.277 473.707 443.082C478.042 444.888 482.692 445.818 487.387 445.818C492.083 445.818 496.733 444.888 501.067 443.082C505.402 441.277 509.337 438.632 512.644 435.299C515.952 431.965 518.567 428.011 520.338 423.662C522.11 419.313 523.003 414.657 522.967 409.961Z" fill="black"/>
<path d="M742.22 409.961C742.256 405.265 741.362 400.609 739.591 396.26C737.819 391.912 735.204 387.957 731.897 384.623C728.589 381.29 724.655 378.645 720.32 376.84C715.985 375.035 711.336 374.104 706.64 374.104C701.944 374.104 697.295 375.035 692.96 376.84C688.626 378.645 684.691 381.29 681.384 384.623C678.076 387.957 675.461 391.912 673.69 396.26C671.918 400.609 671.024 405.265 671.061 409.961C671.024 414.657 671.918 419.313 673.69 423.662C675.461 428.01 678.076 431.965 681.384 435.299C684.691 438.632 688.626 441.277 692.96 443.082C697.295 444.887 701.944 445.818 706.64 445.818C711.336 445.818 715.985 444.887 720.32 443.082C724.655 441.277 728.589 438.632 731.897 435.299C735.204 431.965 737.819 428.01 739.591 423.662C741.362 419.313 742.256 414.657 742.22 409.961Z" fill="black"/>
<path d="M1395.38 630.067C1392.72 630.067 1390.06 628.737 1388.73 626.742C1388.06 626.077 1388.06 625.412 1388.06 625.412C1385.4 621.421 1382.08 621.421 1379.42 625.412C1378.75 626.077 1378.09 626.742 1378.09 626.077C1377.42 622.751 1374.1 624.081 1372.1 622.751C1370.77 621.421 1368.78 620.091 1367.45 619.426C1365.45 618.096 1364.12 617.431 1362.13 618.096C1358.8 620.091 1356.14 617.431 1354.14 615.435C1352.81 614.105 1352.15 612.11 1351.48 610.779C1350.82 608.784 1349.49 607.454 1347.49 606.124C1346.83 605.459 1345.5 604.794 1345.5 604.128C1346.16 602.798 1346.83 601.468 1348.82 602.133C1350.15 602.133 1350.82 601.468 1348.82 600.138C1348.16 599.473 1348.16 599.473 1348.82 598.808C1350.15 598.143 1350.82 597.477 1351.48 596.147C1352.15 593.487 1354.14 592.822 1356.8 592.822C1358.8 592.822 1358.8 592.157 1358.13 590.826C1357.47 588.831 1356.8 585.506 1353.48 586.171C1353.48 586.171 1352.81 586.171 1352.81 585.506C1352.15 582.845 1352.15 582.845 1349.49 584.175C1345.5 586.171 1341.51 588.166 1337.52 590.826C1330.87 594.817 1323.55 595.482 1316.9 597.477C1308.92 598.808 1300.27 600.138 1292.29 602.133H1284.31C1271.67 602.133 1259.7 603.463 1247.06 601.468C1235.09 599.473 1223.12 596.812 1210.48 594.817C1203.83 593.487 1196.51 592.822 1189.2 589.496C1183.21 586.836 1177.23 584.175 1171.91 580.185C1168.58 576.859 1163.26 574.199 1159.27 571.538C1153.95 566.883 1147.96 562.892 1142.64 557.571C1137.99 553.581 1133.33 550.255 1128.01 546.265C1125.35 544.269 1123.35 541.609 1121.36 539.614C1115.37 533.628 1108.06 528.972 1102.74 522.321C1098.08 517 1094.09 511.014 1090.1 505.693C1084.11 497.047 1080.79 487.07 1075.47 478.424C1070.81 471.108 1069.48 463.127 1066.82 455.146C1064.82 447.829 1062.16 440.513 1058.84 433.862C1058.84 433.197 1058.17 432.532 1058.17 431.867C1055.51 423.221 1053.52 415.239 1054.18 405.928C1054.18 404.598 1054.18 403.268 1056.18 404.598C1056.84 404.598 1057.51 405.263 1057.51 403.933C1057.51 403.268 1056.84 403.268 1056.84 403.268C1054.18 402.603 1054.18 401.272 1054.85 399.277C1056.18 395.286 1056.18 391.296 1056.18 387.305C1056.84 379.989 1057.51 372.673 1060.17 365.357C1062.16 358.706 1062.16 352.055 1063.49 345.404C1064.16 342.078 1062.83 340.083 1059.5 340.748C1057.51 341.413 1058.17 340.748 1058.17 339.418C1059.5 334.097 1061.5 328.111 1062.16 322.79C1062.83 319.465 1063.49 316.139 1065.49 313.479C1066.15 312.814 1066.15 311.484 1068.15 312.149C1068.82 312.149 1069.48 311.484 1069.48 310.818C1070.15 304.833 1074.8 301.507 1077.46 296.851C1077.46 296.186 1078.13 295.521 1078.79 294.856C1078.79 293.526 1078.79 292.861 1077.46 292.861C1076.8 292.196 1076.8 292.861 1076.13 293.526C1074.14 298.182 1070.81 301.507 1068.15 306.163C1067.49 306.828 1066.82 308.158 1066.15 307.493C1064.82 307.493 1066.15 306.163 1066.15 305.498C1069.48 297.516 1076.13 292.196 1080.12 284.88C1081.45 282.219 1082.12 279.559 1084.11 276.898C1088.1 269.582 1092.76 262.266 1098.74 256.28C1098.74 255.615 1099.41 254.95 1099.41 254.95C1098.74 251.624 1100.74 249.629 1102.74 247.634C1103.4 247.634 1102.74 246.969 1104.07 246.969C1105.4 246.969 1106.73 245.638 1106.73 243.643C1105.4 240.318 1106.73 238.322 1109.39 237.657C1110.72 237.657 1112.05 236.992 1110.05 235.662C1109.39 235.662 1109.39 234.997 1110.05 234.332C1112.05 233.667 1112.71 230.341 1115.37 230.341C1116.7 229.676 1119.36 229.011 1118.03 226.351C1117.37 225.685 1118.03 225.02 1118.7 225.02C1126.68 219.034 1134 211.718 1142.64 206.397C1143.97 205.732 1145.3 204.402 1146.63 203.737C1149.29 203.072 1150.62 199.746 1153.95 201.742C1155.28 202.407 1157.27 200.412 1158.6 199.081C1158.6 198.416 1158.6 197.751 1159.27 197.086C1161.26 195.756 1161.93 195.756 1158.6 195.091C1157.94 195.091 1156.61 193.761 1157.94 192.43C1159.93 190.435 1161.26 188.44 1163.26 187.11C1165.26 185.779 1166.59 187.11 1167.92 188.44C1168.58 189.105 1169.25 190.435 1170.58 189.77C1172.57 189.105 1174.57 189.105 1175.23 187.11C1175.9 185.114 1176.56 185.114 1177.89 185.779C1178.56 186.444 1181.22 187.775 1180.55 184.449C1180.55 183.784 1180.55 183.119 1181.22 183.119C1181.88 183.119 1181.88 183.119 1182.55 183.784C1183.21 185.779 1183.88 185.779 1185.21 184.449C1185.87 184.449 1186.54 183.784 1187.2 183.784C1189.2 183.119 1191.86 182.454 1191.19 179.128C1190.53 177.798 1191.86 176.468 1193.85 177.798C1195.18 179.128 1197.85 181.124 1199.18 177.133C1199.84 175.138 1202.5 174.473 1202.5 171.147C1204.5 171.812 1205.83 171.147 1207.82 170.482C1207.82 169.817 1208.49 169.817 1209.15 169.817C1209.82 169.817 1210.48 168.487 1211.15 169.152C1211.81 169.817 1211.15 170.482 1210.48 171.147C1210.48 171.812 1209.15 172.477 1210.48 173.142C1211.15 173.142 1211.81 172.477 1211.81 171.812C1211.81 170.482 1212.48 169.817 1213.81 170.482H1214.47C1216.47 167.822 1218.46 167.156 1221.79 168.487C1224.45 169.152 1226.44 169.817 1229.1 167.156C1230.44 165.826 1231.77 166.491 1233.1 167.156C1235.09 167.822 1237.09 168.487 1238.42 165.826C1239.08 165.161 1239.08 165.826 1239.75 166.491C1239.75 167.156 1240.41 167.156 1241.08 167.156C1243.74 163.831 1248.39 167.156 1251.72 163.831C1253.05 162.501 1257.7 161.836 1259.7 165.161C1260.36 166.491 1262.36 168.487 1264.36 165.826C1265.02 165.161 1266.35 164.496 1267.02 165.161C1268.35 167.156 1269.01 167.822 1271.01 165.826C1271.67 165.826 1271.67 166.491 1271.67 167.156C1271.67 167.822 1270.34 167.156 1271.01 168.487L1272.34 167.822C1273.67 166.491 1275 167.156 1275.66 167.156C1280.32 167.822 1284.31 167.822 1287.63 169.817C1291.62 171.147 1295.62 170.482 1299.61 171.147C1300.94 171.147 1301.6 171.147 1302.93 171.812C1306.26 174.473 1309.58 175.138 1314.24 175.138C1315.57 174.473 1316.9 175.803 1318.23 176.468C1318.89 177.133 1319.56 179.128 1319.56 176.468C1319.56 175.803 1320.22 175.803 1320.22 175.803C1322.22 178.463 1324.88 175.803 1326.21 177.798C1327.54 179.128 1327.54 176.468 1328.87 177.133C1330.87 177.798 1332.2 177.798 1333.53 179.793C1333.53 180.459 1334.86 181.124 1334.86 180.459C1335.52 177.798 1336.85 179.128 1338.18 179.793H1338.85C1341.51 179.128 1342.84 180.459 1345.5 181.124C1346.16 181.789 1347.49 184.449 1349.49 183.119C1349.49 182.454 1350.15 182.454 1350.15 183.119C1354.14 185.779 1359.46 185.779 1362.13 189.77C1364.79 191.765 1367.45 193.761 1370.11 194.426C1374.76 196.421 1379.42 199.081 1382.74 202.407C1387.4 207.063 1392.72 210.388 1396.71 215.709C1399.37 218.369 1402.03 220.365 1405.36 222.36C1406.02 223.025 1407.35 223.69 1405.36 225.02C1404.03 225.02 1405.36 225.685 1405.36 225.685C1409.35 226.351 1411.34 229.676 1414 232.336C1414.67 233.002 1416 233.667 1414.67 234.997C1414 235.662 1412.01 235.662 1411.34 234.332C1410.68 231.671 1408.02 231.671 1406.02 229.676C1400.7 225.02 1393.39 221.695 1388.73 215.709C1388.06 215.044 1386.73 214.379 1385.4 214.379C1376.76 210.388 1368.78 204.402 1359.46 201.077C1358.8 201.077 1358.13 200.412 1358.13 201.077C1357.47 201.742 1358.8 201.742 1358.8 201.742C1368.78 205.732 1377.42 211.718 1386.07 217.704C1393.39 222.36 1399.37 229.676 1406.02 234.997C1410.68 238.322 1414.67 244.308 1421.32 244.973C1424.64 244.973 1425.31 246.969 1423.31 249.629C1421.98 251.624 1419.99 253.62 1420.65 256.28C1420.65 257.61 1419.32 257.61 1417.99 256.945C1417.33 256.28 1416.66 256.28 1415.33 256.945C1414.67 257.61 1414 258.275 1414.67 259.606C1416 262.931 1415.33 264.926 1412.01 264.926C1411.34 265.592 1410.01 265.592 1410.01 266.257C1410.01 268.917 1409.35 272.243 1408.68 274.903C1408.68 274.903 1409.35 275.568 1408.68 275.568H1408.02C1406.69 274.238 1406.02 271.577 1404.03 273.573C1402.03 274.903 1403.36 276.898 1404.03 278.894C1405.36 280.889 1406.69 282.219 1404.69 284.214C1403.36 285.545 1398.04 286.21 1397.38 285.545C1395.38 284.88 1393.39 284.88 1392.05 283.549C1391.39 283.549 1390.72 283.549 1390.72 284.214C1390.72 284.88 1390.72 286.21 1391.39 286.875C1392.72 288.87 1393.39 291.531 1392.05 294.191C1391.39 294.191 1391.39 294.856 1391.39 294.856C1388.06 294.856 1385.4 297.516 1382.74 296.851C1382.08 296.851 1381.41 296.186 1380.75 296.186C1377.42 296.186 1373.43 293.526 1370.77 292.196C1366.78 288.87 1362.79 284.88 1357.47 282.219C1356.14 282.219 1354.81 281.554 1354.81 280.224C1353.48 276.898 1350.82 276.898 1348.16 275.568L1344.17 273.573H1343.5C1342.84 269.582 1340.18 272.243 1338.18 272.243C1335.52 271.577 1332.86 268.917 1330.2 267.587C1329.54 267.587 1328.87 266.922 1328.21 266.922C1326.21 267.587 1324.21 266.922 1323.55 265.592C1322.22 262.931 1320.89 262.931 1318.89 262.931C1317.56 262.266 1316.23 262.266 1314.9 260.936C1314.24 260.271 1314.24 260.271 1312.91 260.936C1310.25 261.601 1308.25 259.606 1306.26 258.941C1304.93 258.941 1302.93 258.275 1300.94 258.275C1300.27 258.275 1298.94 257.61 1298.94 256.28C1299.61 253.62 1297.61 254.285 1296.28 254.95C1293.62 256.945 1290.96 257.61 1288.96 253.62L1288.3 252.955C1285.64 254.95 1283.64 252.955 1281.65 252.29C1279.65 251.624 1277.66 250.959 1275.66 251.624C1275 252.29 1273.67 252.29 1272.34 251.624C1267.02 248.964 1261.03 249.629 1255.04 250.294C1247.73 250.959 1240.41 251.624 1233.1 252.955C1228.44 253.62 1223.78 254.95 1219.79 258.275C1217.13 260.271 1213.81 260.936 1210.48 261.601C1208.49 262.266 1206.49 262.266 1205.16 263.596C1200.51 266.922 1195.18 266.922 1190.53 270.247C1186.54 272.243 1182.55 274.238 1179.89 277.563C1177.89 280.889 1175.23 283.549 1173.24 286.875C1168.58 292.861 1165.92 300.177 1161.26 306.163C1157.27 312.149 1154.61 318.8 1151.95 324.786C1149.29 329.441 1147.3 334.097 1144.64 338.088C1143.97 338.753 1143.31 339.418 1143.31 340.083C1142.64 346.734 1138.65 353.385 1137.32 360.036C1136.66 362.696 1136.66 365.357 1136.66 368.017C1136.66 374.003 1134 379.324 1133.33 385.31C1132.67 391.961 1131.33 398.612 1132.67 405.263C1134 414.574 1134.66 424.551 1138.65 433.862C1139.32 435.193 1140.65 437.188 1140.65 438.518C1139.98 442.509 1143.31 443.839 1144.64 446.499C1145.97 449.825 1147.96 452.485 1149.29 455.811C1151.29 459.136 1153.28 462.462 1155.28 465.122C1157.94 468.448 1159.93 473.103 1163.92 475.099C1164.59 475.764 1165.26 477.094 1165.92 477.759C1167.25 479.089 1167.25 481.085 1169.91 481.085C1170.58 481.085 1172.57 481.75 1170.58 483.745C1169.91 484.41 1171.24 485.075 1171.91 485.075C1176.56 486.405 1179.22 489.731 1181.88 493.056C1183.21 495.052 1185.87 495.052 1187.2 497.712C1188.53 499.707 1190.53 500.373 1192.52 501.703C1197.18 506.358 1202.5 508.354 1207.82 511.014C1211.81 513.675 1217.13 515.67 1221.79 517.665C1223.78 518.33 1225.11 520.326 1226.44 521.656C1227.11 521.656 1227.11 522.321 1227.77 522.321C1233.1 522.986 1237.09 526.977 1242.41 528.307C1245.73 528.972 1250.39 528.307 1252.38 532.297C1252.38 532.963 1253.05 532.962 1253.71 532.962C1259.03 532.962 1264.36 533.628 1269.01 534.958C1271.01 535.623 1273 534.958 1275 534.293C1281.65 532.963 1288.96 532.297 1295.62 530.967C1296.95 530.967 1298.28 530.967 1298.94 529.637C1298.94 529.637 1299.61 528.972 1300.27 528.972C1302.93 530.967 1305.59 528.307 1308.25 527.642C1310.91 526.311 1314.24 526.977 1316.9 525.646C1321.55 522.986 1327.54 522.986 1332.2 519.66C1336.85 517 1341.51 515.005 1346.16 512.344C1348.82 511.679 1350.82 510.349 1350.15 507.689C1350.15 506.358 1350.15 505.693 1351.48 505.693C1352.15 505.028 1352.81 504.363 1350.82 503.698C1350.15 503.698 1350.15 502.368 1350.15 501.703C1352.81 497.047 1348.82 492.391 1350.15 488.401C1351.48 483.745 1348.82 480.419 1349.49 475.764V465.122C1350.15 461.132 1350.15 456.476 1351.48 452.485C1351.48 449.825 1349.49 449.16 1346.83 449.16H1338.18C1332.86 448.495 1327.54 447.164 1322.22 447.164C1313.57 446.499 1304.26 445.834 1296.28 447.829C1290.96 449.825 1286.97 447.164 1282.31 447.829C1280.98 447.829 1280.32 446.499 1278.99 445.834C1277.66 444.504 1276.33 443.174 1274.33 443.174H1273.67C1273.67 442.509 1274.33 442.509 1274.33 442.509H1276.99C1279.65 441.844 1280.32 440.513 1279.65 437.853C1278.99 435.858 1278.99 433.862 1278.99 431.867V430.537C1275 427.211 1277.66 422.556 1275.66 419.23C1273.67 414.574 1275 409.919 1273.67 405.928C1273.67 403.268 1275 401.272 1275.66 399.277C1275.66 398.612 1276.33 397.947 1275.66 397.947C1275 397.282 1274.33 397.947 1274.33 398.612C1274.33 398.612 1273.67 399.277 1273.67 398.612C1273 398.612 1273.67 397.947 1273.67 397.947C1274.33 395.286 1275 393.291 1273.67 391.296C1273.67 390.631 1273.67 389.301 1274.33 389.301C1276.99 387.97 1275.66 385.31 1276.33 383.315C1276.33 381.984 1275.66 380.654 1273.67 380.654H1271.67C1271.01 379.989 1269.01 379.989 1269.01 378.659C1269.01 377.329 1270.34 377.994 1271.67 377.329C1273.67 376.664 1275 375.998 1276.33 374.668C1277.66 374.003 1277.66 372.673 1276.99 371.343C1276.33 368.682 1276.99 367.352 1280.32 366.687C1282.98 366.022 1284.97 364.027 1284.31 360.701C1284.31 360.036 1284.31 358.706 1284.97 358.706C1285.64 358.041 1286.3 358.706 1286.97 359.371C1288.3 360.701 1289.63 362.031 1290.29 364.027C1292.29 371.343 1292.95 371.343 1300.27 372.008C1300.94 372.008 1301.6 372.008 1301.6 372.673H1300.27H1294.28C1293.62 372.673 1292.95 372.673 1292.95 373.338L1293.62 374.003C1300.27 375.998 1307.59 378.659 1314.24 375.998C1320.89 374.003 1327.54 372.008 1334.19 374.668C1336.19 375.333 1337.52 377.329 1338.85 377.994C1339.51 377.994 1340.18 378.659 1340.84 377.994C1341.51 377.329 1340.18 377.329 1340.18 376.664C1338.18 375.998 1341.51 375.333 1340.18 374.003C1340.84 373.338 1340.84 374.003 1341.51 374.003C1345.5 375.998 1350.15 375.998 1354.14 375.333C1356.8 374.668 1358.8 374.668 1360.13 376.664C1360.8 377.329 1360.8 377.329 1361.46 377.329C1366.12 375.998 1369.44 379.324 1374.1 379.324C1375.43 379.324 1376.09 378.659 1377.42 377.994C1379.42 376.664 1382.74 378.659 1384.74 375.998C1384.74 375.998 1385.4 376.664 1386.07 376.664C1387.4 377.329 1388.73 379.989 1389.39 376.664C1390.06 375.333 1391.39 375.333 1392.05 375.998C1397.38 377.994 1403.36 375.998 1409.35 375.998C1415.33 375.333 1419.32 377.994 1421.98 382.649C1423.31 384.645 1424.64 385.975 1425.98 387.305C1428.64 387.97 1428.64 390.631 1427.97 391.961C1427.31 393.956 1427.97 395.286 1429.3 396.617C1429.97 397.282 1431.3 397.947 1430.63 399.277C1429.97 400.607 1428.64 400.607 1427.31 400.607C1425.31 400.607 1423.31 401.937 1424.64 404.598C1424.64 405.263 1425.31 405.928 1425.98 405.263C1427.97 403.933 1429.3 404.598 1430.63 405.928C1431.3 407.258 1430.63 408.588 1429.97 409.254C1429.3 409.919 1428.64 410.584 1429.3 410.584C1431.96 413.244 1430.63 417.9 1432.63 420.56C1433.29 421.225 1433.29 422.556 1433.96 423.221C1434.62 424.551 1435.29 425.216 1434.62 427.876C1433.29 429.207 1433.29 431.867 1433.96 433.862C1434.62 435.858 1433.96 435.858 1432.63 436.523C1427.97 438.518 1427.97 438.518 1428.64 444.504C1428.64 453.815 1429.3 463.792 1428.64 473.768C1427.97 480.419 1428.64 487.736 1428.64 494.387C1429.97 503.698 1429.97 513.009 1430.63 522.321C1431.96 532.963 1431.96 542.939 1431.96 553.581V573.534C1431.3 579.52 1431.96 585.506 1431.3 592.157V592.822C1428.64 598.143 1431.3 604.128 1430.63 609.449C1430.63 613.44 1427.97 616.765 1424.64 618.761C1422.65 619.426 1419.99 620.091 1418.66 622.086H1417.33C1413.34 618.761 1408.68 624.082 1404.69 620.756C1402.03 618.761 1400.04 621.421 1399.37 623.416C1398.71 623.416 1399.37 624.081 1398.71 624.747C1398.04 626.742 1397.38 629.402 1395.38 630.067ZM1153.95 231.671C1156.61 230.341 1159.27 229.676 1161.93 227.681C1162.59 227.016 1164.59 227.016 1163.26 225.02C1162.59 224.355 1161.26 223.025 1159.93 224.355C1157.94 226.351 1155.28 228.346 1153.28 230.341C1152.62 231.006 1152.62 231.671 1153.95 231.671ZM1264.36 214.379C1265.02 214.379 1265.69 215.044 1265.69 214.379C1265.69 213.714 1265.02 213.714 1265.02 213.049C1264.36 213.049 1263.03 212.383 1262.36 211.718C1261.69 211.053 1261.03 211.053 1260.36 211.718C1259.7 211.718 1259.7 212.383 1259.7 212.383C1260.36 213.714 1261.03 213.714 1261.69 213.714C1262.36 213.714 1263.69 214.379 1264.36 214.379ZM1897.78 633.393C1895.12 634.058 1893.13 633.393 1891.8 630.733C1889.14 626.077 1889.8 621.421 1889.8 616.765C1889.8 612.11 1889.14 611.445 1884.48 611.445C1883.81 612.11 1883.15 612.11 1883.15 612.11C1879.82 609.449 1877.16 610.779 1874.5 612.11C1871.84 613.44 1869.18 613.44 1866.52 614.105C1865.19 614.105 1864.53 614.105 1864.53 613.44C1862.53 611.445 1861.2 611.445 1859.87 613.44C1859.87 614.105 1859.21 614.105 1859.21 613.44C1858.54 612.11 1857.21 612.775 1856.55 612.775C1855.22 614.105 1853.88 615.435 1851.89 613.44C1851.89 612.775 1851.22 612.775 1851.22 613.44C1849.23 616.765 1845.24 614.105 1842.58 614.77C1841.25 616.1 1839.92 614.77 1841.25 612.775C1841.25 612.11 1841.25 612.11 1840.58 612.11C1835.26 612.775 1830.61 612.11 1825.29 611.445C1823.96 611.445 1823.29 612.11 1823.29 612.775C1822.63 614.105 1822.63 614.105 1821.96 614.105C1820.63 614.105 1819.96 613.44 1819.96 612.775C1819.96 612.11 1819.96 610.779 1818.63 610.779C1817.3 610.114 1816.64 611.445 1815.97 612.11C1815.31 612.775 1815.97 613.44 1814.64 613.44V612.11C1814.64 611.445 1814.64 610.114 1813.31 610.114C1812.65 610.114 1811.98 610.114 1811.98 611.445C1811.32 612.775 1811.32 612.775 1809.99 612.11C1807.99 610.779 1805.33 610.114 1802.67 612.11C1801.34 612.775 1799.35 613.44 1797.35 612.775C1794.03 611.445 1790.04 612.11 1786.71 610.114C1786.04 609.449 1784.71 606.789 1783.38 609.449C1782.72 610.114 1782.72 608.119 1782.72 607.454C1784.71 605.459 1780.72 604.794 1780.72 602.798C1780.06 603.463 1778.73 604.128 1778.06 604.794C1777.4 606.124 1778.73 605.459 1778.73 605.459C1779.39 606.124 1778.73 606.789 1778.73 606.789C1778.06 607.454 1777.4 608.119 1776.07 608.784C1775.4 608.784 1775.4 607.454 1775.4 606.789C1775.4 605.459 1774.74 606.124 1773.41 606.124C1771.41 606.789 1769.42 608.119 1767.42 606.124C1766.09 604.794 1765.43 604.794 1766.09 606.789C1766.09 609.449 1764.76 609.449 1763.43 608.119C1761.44 606.789 1760.11 607.454 1759.44 608.784C1758.78 609.449 1758.11 610.114 1758.11 608.784C1757.45 607.454 1754.78 608.119 1756.78 606.124C1757.45 605.459 1758.78 605.459 1758.11 604.794C1757.45 604.128 1755.45 603.463 1754.78 604.128C1752.79 606.789 1751.46 606.124 1749.46 604.794C1748.8 603.463 1747.47 604.794 1746.8 604.794C1744.81 605.459 1746.8 606.124 1746.8 606.789C1746.8 607.454 1746.8 609.449 1745.47 608.119C1744.14 607.454 1743.48 606.789 1742.81 608.119C1741.48 608.784 1742.15 607.454 1741.48 606.789C1741.48 606.789 1741.48 605.459 1740.82 605.459C1740.15 605.459 1738.82 605.459 1738.82 606.124C1738.16 607.454 1738.16 608.119 1736.83 607.454C1735.5 607.454 1734.83 606.789 1735.5 605.459C1736.16 604.794 1736.16 604.794 1735.5 604.128C1734.83 604.128 1733.5 604.128 1732.84 604.794C1732.17 604.794 1733.5 605.459 1733.5 605.459C1734.17 606.789 1734.17 607.454 1732.84 608.119C1731.51 608.119 1730.18 609.449 1729.51 607.454C1728.85 604.128 1727.52 606.124 1726.85 607.454C1726.19 608.119 1726.19 609.449 1725.52 608.119C1722.86 605.459 1720.86 608.119 1718.87 608.784C1718.87 608.784 1718.2 608.784 1718.2 609.449C1716.87 612.11 1714.88 612.775 1711.55 611.445C1711.55 611.445 1711.55 610.779 1710.89 610.779C1709.56 610.114 1707.56 614.105 1706.23 611.445C1704.9 608.119 1703.57 610.114 1702.24 611.445C1701.58 611.445 1701.58 612.11 1700.91 611.445C1699.58 610.779 1697.59 610.114 1696.26 610.779C1694.93 610.779 1694.93 609.449 1694.93 608.784C1695.59 606.789 1693.6 605.459 1692.27 604.128C1691.6 604.128 1691.6 603.463 1690.93 604.128V605.459C1691.6 605.459 1692.27 606.789 1692.27 607.454C1693.6 608.119 1694.26 609.449 1692.93 610.114C1691.6 611.445 1690.27 610.779 1689.6 609.449C1687.61 608.119 1686.94 608.119 1684.95 609.449C1682.95 610.779 1680.96 609.449 1678.96 608.784C1677.63 608.784 1674.31 610.114 1676.97 606.124C1676.97 606.124 1676.97 605.459 1676.3 604.794C1675.64 604.794 1674.31 605.459 1674.31 606.124C1673.64 610.114 1671.65 608.784 1670.32 606.789C1668.99 605.459 1668.99 606.789 1668.32 607.454C1667.66 608.119 1667.66 608.784 1666.99 609.449C1666.99 610.779 1666.99 611.445 1665.66 610.779C1665 610.779 1665 610.114 1665 609.449C1665 608.784 1665.66 608.119 1665 607.454C1664.33 607.454 1664.33 608.119 1663.67 608.784C1659.01 612.11 1657.01 612.11 1651.69 610.114C1649.7 610.114 1649.7 611.445 1648.37 611.445C1643.71 612.11 1639.72 611.445 1635.73 610.779C1633.74 610.114 1631.74 610.114 1631.08 612.775C1629.75 614.105 1629.08 615.435 1627.75 616.1C1625.75 616.765 1625.75 614.105 1624.42 613.44C1619.1 610.779 1616.44 606.124 1614.45 600.803C1611.79 595.482 1610.46 590.826 1611.79 584.841C1612.45 582.845 1611.79 580.185 1611.79 577.524C1609.13 567.548 1610.46 557.571 1609.79 547.595C1609.13 534.958 1607.13 522.321 1605.8 509.684C1605.14 502.368 1605.14 495.052 1603.81 487.07C1603.14 477.094 1603.81 467.117 1603.14 457.141C1602.48 445.834 1602.48 435.193 1601.81 423.886C1601.15 413.244 1600.48 403.268 1600.48 393.291C1601.15 389.966 1601.15 386.64 1600.48 383.315C1599.82 379.989 1601.15 376.664 1601.15 372.673C1601.15 367.352 1601.15 361.366 1602.48 356.045C1602.48 353.385 1601.81 350.725 1602.48 348.064C1603.81 344.739 1600.48 340.748 1603.81 337.423C1604.47 336.757 1602.48 336.092 1602.48 334.762C1603.14 330.772 1603.81 326.781 1603.81 322.79C1603.81 318.135 1605.8 314.144 1605.14 310.153C1605.14 307.493 1605.8 305.498 1606.47 303.502C1607.13 300.842 1606.47 298.182 1606.47 295.521C1606.47 293.526 1605.14 290.865 1606.47 288.205C1607.13 287.54 1607.13 286.875 1607.13 286.875C1611.12 288.87 1609.13 284.214 1611.12 284.214C1612.45 283.549 1611.12 282.219 1611.12 281.554C1610.46 280.224 1609.79 278.894 1609.79 277.563C1608.46 275.568 1609.79 272.908 1609.13 270.247C1608.46 267.587 1607.8 264.926 1608.46 262.266C1608.46 261.601 1606.47 260.936 1605.8 259.606C1605.8 258.941 1605.14 257.61 1605.8 257.61C1606.47 256.945 1606.47 258.275 1607.13 258.275C1607.8 258.941 1609.79 256.28 1609.79 254.95C1609.13 253.62 1609.13 252.29 1609.79 250.959C1610.46 250.294 1610.46 249.629 1610.46 249.629V238.987C1611.79 235.662 1609.13 234.997 1607.8 233.667H1606.47C1605.14 232.336 1603.14 233.667 1601.81 231.671C1603.81 231.006 1604.47 227.681 1607.13 227.016C1607.8 226.351 1609.79 227.016 1609.79 225.685C1609.13 224.355 1607.8 225.02 1607.13 225.02C1607.13 225.02 1606.47 225.02 1606.47 224.355C1606.47 224.355 1606.47 223.69 1607.13 223.69C1607.8 223.025 1609.13 222.36 1610.46 222.36C1611.12 221.695 1612.45 222.36 1612.45 221.03C1612.45 219.7 1611.12 220.365 1610.46 219.7C1608.46 219.034 1606.47 219.7 1605.14 219.034C1604.47 219.034 1603.81 219.034 1603.81 218.369H1605.14C1606.47 217.704 1607.8 217.704 1609.13 217.039C1609.79 217.039 1610.46 217.039 1611.12 215.709C1611.12 214.379 1609.79 215.044 1609.13 214.379C1608.46 214.379 1607.13 214.379 1607.8 213.049C1607.8 211.718 1609.13 212.383 1609.79 212.383C1611.12 213.049 1611.79 212.383 1612.45 211.718C1613.12 210.388 1611.12 210.388 1610.46 209.723C1610.46 209.723 1609.79 209.058 1609.13 209.058C1607.13 208.393 1605.8 208.393 1608.46 207.063C1609.79 206.397 1609.13 205.067 1607.8 204.402C1607.13 204.402 1605.8 204.402 1605.8 203.737C1607.13 202.407 1605.14 199.746 1607.13 199.081C1608.46 198.416 1608.46 198.416 1607.8 197.086L1607.13 196.421C1609.13 193.095 1607.8 191.765 1604.47 189.77V189.105C1605.8 187.11 1606.47 185.779 1603.14 186.444C1602.48 186.444 1601.81 185.779 1601.81 185.114C1602.48 184.449 1603.14 184.449 1603.81 184.449C1605.8 185.114 1607.13 183.784 1608.46 183.119C1609.79 182.454 1610.46 181.124 1609.79 179.793C1608.46 177.798 1609.13 177.133 1611.12 175.803C1612.45 174.473 1611.79 172.477 1611.12 171.147C1611.12 169.817 1611.12 169.817 1612.45 169.152C1613.78 169.152 1615.78 168.487 1617.11 167.822C1618.44 167.156 1619.1 169.152 1619.1 169.817C1619.77 171.147 1619.1 172.477 1619.77 173.807C1619.77 175.138 1620.43 176.468 1621.76 175.803C1623.09 175.803 1623.76 175.138 1623.76 173.807C1623.09 172.477 1623.09 171.812 1624.42 171.147C1625.75 170.482 1625.76 171.812 1626.42 172.477C1626.42 173.142 1627.09 173.807 1628.42 173.142C1631.08 171.812 1634.4 172.477 1636.4 169.817C1637.73 169.152 1637.73 169.817 1638.39 170.482C1639.06 173.142 1642.38 175.138 1644.38 173.142C1647.04 171.147 1648.37 173.142 1650.36 174.473C1651.03 175.138 1651.69 176.468 1653.02 176.468C1655.02 176.468 1655.68 174.473 1655.02 172.477V171.147C1655.68 171.147 1655.68 171.812 1656.35 172.477C1657.68 173.807 1659.68 175.803 1661.01 171.812C1661.01 171.147 1662.34 171.147 1663 171.812C1665 173.142 1666.33 173.142 1667.66 170.482C1667.66 169.817 1667.66 169.817 1668.32 169.152C1668.32 169.817 1668.32 169.817 1668.99 170.482C1668.99 172.477 1671.65 171.147 1672.31 173.142L1672.98 172.477C1673.64 170.482 1674.97 169.152 1675.64 167.822C1676.3 165.826 1677.63 166.491 1678.3 167.156C1680.29 168.487 1680.96 166.491 1682.95 166.491C1684.95 167.156 1687.61 167.156 1689.6 167.822C1691.6 168.487 1692.93 168.487 1693.6 166.491C1694.93 165.161 1696.92 167.156 1698.25 166.491C1698.92 165.826 1700.25 167.822 1701.58 165.826C1701.58 165.161 1702.24 165.826 1702.24 166.491C1702.91 167.156 1701.58 169.152 1702.91 168.487C1705.57 167.822 1708.89 169.817 1710.22 166.491C1710.89 165.826 1711.55 165.161 1712.88 165.161C1719.53 165.826 1726.19 166.491 1732.84 166.491C1736.16 166.491 1738.82 165.161 1742.81 165.161C1748.8 165.161 1755.45 164.496 1762.1 164.496C1762.77 164.496 1764.76 163.831 1765.43 165.826C1766.09 167.156 1766.76 164.496 1768.09 165.161C1776.73 167.822 1785.38 163.831 1794.03 164.496C1804 165.161 1813.31 165.161 1823.29 166.491C1830.61 167.822 1838.59 168.487 1845.9 167.156C1849.23 166.491 1852.55 165.826 1855.22 169.152C1855.22 169.152 1855.88 169.817 1856.55 169.817C1864.53 169.152 1873.17 171.147 1881.15 171.147C1883.81 171.147 1886.47 173.807 1888.47 169.152C1888.47 168.487 1889.14 169.817 1889.8 170.482C1890.47 173.142 1892.46 172.477 1894.46 172.477C1896.45 171.812 1896.45 170.482 1896.45 168.487C1896.45 167.156 1896.45 165.161 1897.78 165.161C1899.11 165.161 1898.45 167.822 1899.11 169.152V169.817C1897.78 172.477 1901.11 174.473 1901.77 177.133C1901.77 179.128 1902.44 181.124 1903.1 183.119C1903.77 183.784 1903.77 183.784 1903.1 184.449C1899.78 187.775 1901.77 191.1 1903.77 194.426C1905.76 198.416 1907.09 203.072 1906.43 207.728C1905.76 211.718 1907.76 216.374 1907.76 220.365C1907.09 221.695 1907.76 223.025 1906.43 224.355C1905.1 225.685 1905.1 227.681 1906.43 229.676C1907.09 230.341 1907.09 231.006 1906.43 232.336C1905.76 234.332 1906.43 236.992 1907.09 238.987C1907.09 238.987 1907.09 239.653 1907.76 239.653C1908.42 240.318 1909.09 238.987 1909.75 239.653C1911.08 240.318 1909.75 240.318 1909.09 240.318C1908.42 240.983 1907.76 240.983 1907.09 241.648C1905.76 243.643 1904.43 245.638 1905.1 248.299C1905.76 250.294 1903.77 249.629 1903.77 250.294C1901.77 248.964 1897.78 252.29 1896.45 247.634C1895.79 246.304 1894.46 246.969 1893.13 247.634C1891.13 247.634 1888.47 249.629 1887.14 245.639C1886.47 244.973 1885.81 245.639 1885.14 245.639C1883.81 245.639 1881.82 246.304 1881.15 244.308C1881.15 243.643 1879.82 243.643 1879.82 244.308C1878.49 245.639 1876.5 244.973 1875.17 244.308C1871.84 242.978 1867.85 244.308 1863.86 244.308C1859.21 244.973 1853.88 242.978 1848.56 243.643C1847.9 244.308 1847.9 243.643 1847.23 242.978C1847.23 238.987 1845.24 241.648 1843.91 242.313C1842.58 242.978 1841.91 244.308 1839.92 244.308C1838.59 243.643 1837.26 244.973 1837.26 242.313C1837.26 240.983 1834.6 240.983 1833.27 241.648C1832.6 241.648 1831.94 242.978 1831.94 242.313C1831.27 238.987 1827.95 240.318 1826.62 240.318C1823.96 239.653 1821.96 240.318 1819.3 239.653C1819.3 238.987 1819.3 240.318 1819.3 240.983C1819.3 241.648 1818.63 242.313 1817.97 241.648C1815.31 238.987 1812.65 242.313 1809.99 241.648H1808.66C1807.33 236.992 1803.34 242.978 1801.34 240.318C1800.68 239.653 1800.01 239.653 1800.01 240.318C1800.68 244.308 1799.35 241.648 1798.68 240.983C1797.35 240.318 1795.36 240.983 1794.03 241.648C1793.36 242.313 1792.7 243.643 1791.37 241.648C1790.04 240.318 1787.37 241.648 1786.04 242.978C1784.05 243.643 1782.05 244.308 1780.06 242.978C1778.73 241.648 1778.06 242.313 1777.4 242.978C1776.07 243.643 1775.4 244.973 1774.74 242.313C1774.07 242.313 1773.41 241.648 1772.74 242.313C1772.08 243.643 1770.75 242.978 1770.08 242.978C1769.42 243.643 1768.09 243.643 1768.09 242.978C1767.42 242.313 1768.75 241.648 1768.75 240.983C1769.42 240.318 1771.41 240.983 1770.75 239.653C1770.08 238.987 1768.09 238.987 1767.42 240.318C1766.76 241.648 1765.43 242.978 1766.09 244.308C1766.09 244.973 1766.09 246.304 1764.76 245.639C1762.77 243.643 1760.11 245.639 1758.11 245.639C1755.45 245.639 1754.12 244.973 1752.79 242.978C1752.12 240.983 1751.46 240.983 1750.79 242.313C1750.13 242.978 1749.46 244.308 1748.13 242.978C1747.47 242.313 1746.14 243.643 1746.14 244.973C1746.14 247.634 1744.14 246.969 1742.81 246.304C1741.48 245.638 1740.82 246.304 1739.49 246.304C1736.83 246.969 1734.17 246.304 1731.51 246.304C1728.85 246.304 1725.52 246.969 1722.86 244.973H1722.19C1720.2 246.304 1718.2 248.299 1716.87 244.308C1716.87 242.978 1714.88 242.978 1714.21 243.643C1712.88 244.973 1711.55 244.973 1710.89 242.978C1710.22 242.313 1709.56 241.648 1708.23 242.313C1707.56 242.978 1708.89 243.643 1708.89 244.308V245.639C1706.9 244.308 1705.57 244.973 1704.24 245.639C1703.57 244.308 1701.58 244.973 1700.25 244.308C1699.58 244.308 1698.25 242.978 1697.59 245.639C1697.59 246.304 1694.93 246.304 1694.26 246.304C1690.27 244.973 1686.28 245.638 1682.95 244.973C1680.29 244.308 1679.63 244.973 1679.63 247.634C1680.96 254.95 1683.62 262.931 1684.28 270.247C1685.61 280.889 1685.61 291.531 1686.28 302.172C1686.28 310.818 1686.94 319.465 1686.94 327.446C1686.94 335.427 1686.28 344.074 1686.28 352.055C1686.28 354.05 1686.94 355.38 1689.6 355.38C1694.93 355.38 1700.25 355.38 1705.57 356.045C1710.22 357.376 1714.21 355.38 1718.87 356.711C1720.2 357.376 1722.86 356.711 1724.19 356.045C1726.19 355.38 1728.18 354.715 1728.18 358.041C1727.52 359.371 1729.51 358.706 1730.18 358.706C1732.84 358.706 1735.5 357.376 1738.16 357.376C1740.82 357.376 1742.81 356.711 1745.47 358.041C1746.14 358.706 1749.46 360.036 1749.46 356.711C1749.46 355.38 1750.79 356.045 1752.12 356.045C1752.79 355.38 1753.45 356.045 1754.12 357.376C1754.78 360.036 1757.45 360.701 1758.78 358.041C1759.44 358.041 1759.44 356.711 1760.77 356.711C1761.44 356.711 1762.1 357.376 1762.1 356.045C1762.77 355.38 1762.1 355.38 1761.44 354.715C1760.77 354.715 1760.11 354.715 1760.11 354.05C1760.11 353.385 1760.77 353.385 1761.44 353.385H1763.43C1764.1 354.05 1765.43 354.715 1765.43 354.05C1766.09 352.72 1764.76 352.72 1764.76 352.72C1764.1 350.725 1766.09 350.725 1766.76 350.06C1768.09 349.394 1768.75 349.394 1769.42 350.725C1770.75 353.385 1774.07 354.05 1776.07 356.711C1776.07 357.376 1776.07 356.711 1776.73 356.045C1776.73 355.38 1776.73 354.715 1777.4 355.38C1778.06 356.045 1777.4 357.376 1778.73 357.376C1779.39 356.711 1779.39 355.38 1778.73 354.715C1778.73 353.385 1778.73 352.055 1780.06 351.39C1782.05 350.725 1781.39 352.72 1782.05 353.385C1782.72 354.05 1783.38 355.38 1784.05 356.045C1787.37 357.376 1787.37 359.371 1784.71 361.366C1783.38 361.366 1782.72 362.696 1783.38 364.027C1783.38 364.692 1784.71 366.687 1786.71 365.357H1787.37C1788.04 366.022 1787.37 366.687 1786.71 366.687C1782.72 368.017 1782.72 370.678 1783.38 374.668C1784.05 377.329 1784.05 379.989 1784.05 382.649C1784.05 383.98 1785.38 384.645 1786.04 383.315C1788.04 379.989 1790.04 376.664 1790.04 372.673C1790.04 371.343 1790.04 370.678 1791.37 370.013H1792.03C1793.36 371.343 1792.03 372.008 1792.03 372.673C1791.37 376.664 1792.03 379.989 1792.03 383.98C1792.03 385.975 1792.7 387.305 1790.04 388.635C1787.37 389.966 1789.37 392.626 1789.37 394.621C1790.7 397.947 1791.37 401.272 1791.37 404.598C1790.7 407.258 1792.03 409.254 1791.37 411.249C1791.37 411.914 1792.03 412.579 1792.03 413.244C1797.35 414.574 1794.69 417.9 1794.69 420.56C1794.69 421.891 1794.03 423.221 1794.69 425.216C1795.36 429.207 1793.36 432.532 1792.03 435.193C1792.03 436.523 1790.7 436.523 1790.04 435.858C1785.38 433.197 1780.72 434.527 1776.07 435.193C1772.74 435.858 1769.42 436.523 1766.09 435.858C1764.76 435.858 1762.1 439.183 1762.1 434.527C1760.77 435.193 1759.44 434.527 1758.11 435.858C1756.78 436.523 1756.11 436.523 1754.78 435.858C1754.12 435.858 1752.79 435.858 1752.79 435.193C1752.79 433.862 1754.12 434.527 1754.78 434.527C1756.78 434.527 1755.45 433.197 1755.45 432.532C1756.11 431.867 1755.45 431.867 1754.78 431.867C1752.79 431.202 1750.79 432.532 1750.79 434.527C1750.13 437.188 1748.8 436.523 1747.47 436.523C1746.8 436.523 1746.14 435.858 1744.81 435.858C1744.14 436.523 1743.48 435.858 1743.48 435.193C1743.48 433.862 1743.48 433.197 1744.14 432.532C1744.81 432.532 1746.8 433.862 1746.14 431.867C1746.14 431.202 1744.14 430.537 1743.48 431.202C1742.15 432.532 1738.16 429.872 1738.16 433.862C1738.16 434.527 1736.83 433.197 1736.16 433.197C1735.5 432.532 1734.83 430.537 1734.17 433.197C1734.17 433.862 1732.84 433.862 1732.17 433.197C1731.51 432.532 1731.51 431.867 1731.51 431.202C1731.51 430.537 1733.5 430.537 1732.17 429.872C1730.84 429.207 1730.18 429.872 1729.51 430.537C1728.85 433.197 1726.85 432.532 1724.86 431.867C1722.86 431.202 1720.86 429.207 1717.54 431.202C1716.87 431.867 1716.21 429.872 1716.21 429.207C1715.54 427.211 1714.88 427.211 1713.55 427.876C1710.89 430.537 1708.23 428.542 1706.23 427.876C1702.91 426.546 1700.25 426.546 1697.59 427.211C1695.59 427.876 1694.93 428.542 1696.92 429.872C1697.59 430.537 1698.25 431.202 1698.25 432.532C1698.25 433.197 1698.92 434.527 1696.92 433.862C1696.26 433.862 1694.93 434.527 1693.6 434.527C1692.93 434.527 1691.6 437.853 1690.93 433.862C1690.93 433.197 1686.28 435.858 1686.28 437.188C1684.95 443.174 1684.95 449.825 1684.28 455.811C1684.28 465.787 1684.28 475.764 1683.62 485.74C1683.62 495.052 1682.29 504.363 1680.96 513.675C1680.96 517.665 1680.96 521.656 1680.29 525.646C1679.63 528.307 1682.95 528.972 1682.95 530.967H1683.62C1686.28 528.972 1688.94 529.637 1692.27 530.302C1694.26 530.967 1696.92 529.637 1699.58 529.637C1702.24 529.637 1704.9 530.302 1708.23 529.637C1708.89 529.637 1708.89 530.967 1708.89 530.967C1709.56 531.632 1709.56 532.297 1710.22 531.632C1710.22 528.972 1712.22 530.302 1713.55 529.637C1717.54 528.307 1717.54 528.307 1716.21 532.297C1716.21 532.963 1715.54 534.293 1716.21 534.293C1717.54 534.293 1717.54 532.963 1717.54 532.297C1719.53 528.307 1719.53 528.307 1723.52 530.302C1726.19 530.967 1728.18 529.637 1730.18 529.637C1733.5 529.637 1736.16 528.972 1738.82 530.302H1743.48C1746.8 529.637 1749.46 529.637 1752.79 530.967C1754.12 531.632 1756.78 532.962 1758.78 530.302C1760.11 528.307 1762.77 530.302 1764.76 530.302C1768.09 530.967 1771.41 530.967 1774.74 531.632C1776.07 532.297 1777.4 531.632 1777.4 533.628C1777.4 534.293 1778.73 535.623 1779.39 533.628C1779.39 532.963 1780.06 531.632 1780.72 532.297C1782.72 532.963 1784.71 532.297 1786.71 531.632C1787.37 531.632 1788.04 530.967 1788.7 531.632C1788.7 532.297 1788.04 532.963 1787.37 533.628C1787.37 533.628 1786.04 533.628 1786.71 534.293C1786.71 534.958 1787.37 534.958 1788.04 534.958C1790.04 534.293 1792.03 536.288 1793.36 533.628C1798.68 532.963 1803.34 530.302 1809.32 532.297C1813.98 533.628 1819.96 532.297 1824.62 532.962C1825.95 533.628 1827.95 532.963 1828.61 534.293C1828.61 534.958 1829.28 534.958 1829.28 534.958C1832.6 533.628 1835.93 533.628 1838.59 532.297C1839.92 530.967 1841.25 531.632 1841.91 531.632C1844.57 531.632 1843.91 532.297 1843.24 533.628C1842.58 533.628 1841.91 534.293 1842.58 534.293C1843.24 534.958 1843.91 534.293 1843.91 534.293C1845.24 531.632 1846.57 529.637 1849.89 531.632C1852.55 528.307 1857.21 532.962 1859.87 529.637H1861.2C1864.53 532.962 1868.52 530.967 1872.51 530.967C1875.83 530.967 1879.82 529.637 1883.15 531.632C1883.81 531.632 1884.48 531.632 1884.48 530.967C1888.47 528.307 1891.8 528.307 1895.79 529.637C1897.78 530.302 1900.44 530.967 1903.1 530.302C1905.1 529.637 1907.76 530.302 1909.75 530.967C1911.08 531.632 1911.75 531.632 1911.75 532.297C1911.75 532.963 1911.08 533.628 1910.42 533.628C1907.09 535.623 1909.09 538.283 1909.75 540.279C1910.42 542.274 1911.08 544.269 1911.08 545.599C1911.08 546.265 1911.08 546.93 1910.42 546.93C1907.76 548.925 1908.42 552.251 1905.76 554.246C1905.1 554.911 1904.43 555.576 1905.1 555.576C1908.42 554.911 1906.43 557.571 1907.09 558.236C1909.09 559.567 1907.09 562.227 1908.42 564.222C1909.09 564.222 1908.42 566.218 1907.09 566.218C1905.76 566.218 1906.43 565.553 1906.43 564.887C1906.43 563.557 1905.76 562.892 1905.1 562.892C1904.43 562.892 1904.43 564.222 1905.1 564.887C1905.1 566.218 1905.1 569.543 1908.42 567.548C1908.42 567.548 1909.09 567.548 1909.09 568.213C1909.09 569.543 1909.75 570.873 1908.42 571.538C1906.43 572.869 1905.76 573.534 1908.42 574.864C1909.09 575.529 1909.09 576.859 1909.09 577.524C1910.42 586.171 1910.42 594.817 1909.09 603.463C1907.76 610.114 1907.09 616.765 1905.76 623.416C1904.43 628.072 1902.44 631.398 1897.78 633.393ZM1694.93 400.607C1696.26 401.937 1697.59 402.603 1697.59 400.607C1697.59 397.947 1700.25 400.607 1700.91 398.612C1697.59 399.277 1701.58 395.952 1698.92 395.952C1697.59 395.952 1696.26 394.621 1695.59 397.282C1694.93 398.612 1694.26 399.942 1692.93 397.282C1692.93 395.952 1692.27 397.282 1692.27 397.947C1690.27 401.272 1693.6 399.942 1694.93 400.607ZM1709.56 400.607C1710.89 400.607 1710.89 399.942 1711.55 399.277C1712.22 397.947 1711.55 397.947 1710.89 397.282C1710.22 397.282 1709.56 397.282 1709.56 396.617C1710.22 394.621 1715.54 391.961 1717.54 392.626C1720.2 393.956 1722.86 391.961 1724.86 393.956C1726.85 394.621 1726.85 391.961 1728.85 392.626C1729.51 392.626 1730.18 392.626 1730.18 391.961C1730.18 390.631 1728.85 390.631 1728.18 390.631C1727.52 389.966 1725.52 391.296 1725.52 391.296C1724.19 389.301 1722.86 388.635 1720.86 388.635H1720.2C1720.2 387.97 1720.86 387.97 1720.86 387.97C1721.53 387.305 1722.86 387.305 1722.19 385.975C1722.19 385.31 1720.86 385.31 1720.2 385.975C1718.2 385.975 1716.87 388.635 1713.55 386.64C1712.88 385.975 1709.56 385.31 1706.9 387.305H1704.9C1700.25 383.315 1694.93 383.98 1689.6 381.984C1688.94 381.984 1687.61 381.319 1687.61 383.315C1687.61 384.645 1687.61 385.975 1688.94 385.975C1689.6 385.975 1690.27 385.31 1690.93 385.31C1692.27 385.31 1693.6 384.645 1694.26 385.975C1694.26 386.64 1694.93 387.305 1694.26 387.97C1693.6 388.635 1692.93 387.305 1691.6 387.305C1689.6 386.64 1688.27 387.97 1687.61 389.301C1686.94 390.631 1688.27 391.296 1688.94 391.296C1692.27 391.961 1695.59 391.961 1698.25 389.966C1700.91 388.635 1702.24 390.631 1703.57 391.296C1705.57 392.626 1703.57 393.291 1703.57 394.621C1702.91 395.286 1702.91 396.617 1702.24 397.282C1702.24 397.947 1702.91 398.612 1703.57 398.612C1704.24 398.612 1704.24 398.612 1704.24 397.947C1704.9 396.617 1704.24 395.286 1705.57 394.621C1707.56 394.621 1706.23 397.282 1707.56 397.947C1707.56 397.947 1708.23 398.612 1708.23 399.277C1708.23 400.607 1708.89 400.607 1709.56 400.607ZM1891.13 560.897C1892.46 560.232 1891.8 557.571 1893.13 556.906C1893.13 556.241 1892.46 555.576 1892.46 556.241C1891.13 557.571 1889.14 557.571 1887.14 557.571C1886.47 557.571 1885.81 558.236 1886.47 558.901C1887.81 559.567 1889.8 560.897 1891.13 560.897ZM1681.62 211.053C1682.95 210.388 1686.28 211.053 1687.61 209.058C1687.61 208.393 1690.93 207.063 1687.61 206.397C1686.28 206.397 1686.94 205.067 1687.61 204.402C1687.61 203.737 1688.27 203.072 1687.61 202.407C1686.28 201.077 1686.94 200.412 1687.61 199.081L1688.94 197.751C1686.94 197.751 1688.27 194.426 1684.95 195.091C1681.62 195.756 1678.3 194.426 1674.97 197.751C1674.31 198.416 1672.31 197.751 1672.98 199.746C1673.64 201.077 1675.64 200.412 1676.3 199.746C1678.96 197.751 1680.96 202.407 1683.62 200.412C1684.28 201.742 1685.61 202.407 1685.61 203.737C1685.61 204.402 1684.95 205.732 1684.28 206.397C1682.95 206.397 1682.95 204.402 1682.29 203.737H1680.96C1680.29 203.737 1680.96 203.072 1680.96 203.737C1682.29 205.732 1680.96 207.063 1680.29 207.728C1678.96 209.723 1680.96 210.388 1681.62 211.053ZM2112.86 621.421C2111.53 621.421 2109.53 622.751 2108.87 620.091C2108.2 618.096 2107.54 620.756 2106.21 620.091C2104.21 620.091 2102.22 620.756 2100.22 621.421C2097.56 621.421 2094.24 620.756 2092.24 619.426C2088.92 616.765 2085.59 616.1 2082.26 613.44C2080.27 611.445 2079.6 612.775 2079.6 615.435C2079.6 616.1 2080.93 617.431 2078.94 618.096C2077.61 618.096 2077.61 616.765 2076.94 615.435C2075.61 612.11 2076.28 608.119 2074.28 604.794V604.128C2075.61 602.798 2074.95 600.138 2074.95 598.808C2075.61 596.147 2074.95 594.152 2074.95 591.491C2075.61 587.501 2075.61 582.845 2075.61 578.855C2076.28 573.534 2074.28 568.878 2074.95 563.557C2075.61 560.897 2074.28 556.906 2074.28 553.581C2074.28 544.934 2075.61 535.623 2074.95 526.312C2074.28 519.66 2072.95 513.009 2073.62 506.358C2074.28 499.042 2074.28 491.726 2074.95 485.075C2074.95 481.085 2074.28 477.759 2073.62 474.434C2073.62 472.438 2074.28 470.443 2074.95 467.783C2076.28 465.122 2074.95 461.797 2074.95 458.471V437.188C2074.95 433.197 2073.62 429.207 2073.62 425.216C2074.28 421.225 2074.28 417.235 2074.28 412.579C2074.95 407.923 2074.28 402.603 2073.62 397.947C2073.62 396.617 2072.95 395.952 2073.62 394.621C2074.28 393.956 2074.28 393.291 2074.28 392.626C2072.29 387.97 2072.95 383.98 2073.62 379.324C2074.28 377.994 2072.95 376.664 2072.95 375.333C2071.62 369.347 2072.95 363.362 2072.29 357.376C2071.62 354.715 2071.62 351.39 2071.62 348.729C2070.96 345.404 2071.62 341.413 2070.96 338.753C2070.29 334.097 2071.62 328.776 2070.96 324.121C2070.29 322.79 2070.96 320.795 2070.96 319.465C2071.62 313.479 2071.62 307.493 2071.62 301.507C2071.62 297.516 2070.96 294.191 2070.96 290.2C2070.29 284.88 2069.63 279.559 2069.63 273.573C2069.63 268.917 2070.96 262.931 2069.63 258.941C2068.3 254.95 2069.63 250.959 2067.63 246.969V244.973C2069.63 244.308 2069.63 243.643 2068.3 242.313C2066.97 241.648 2068.96 240.318 2069.63 240.318C2070.29 240.318 2070.96 239.653 2071.62 239.653C2070.96 238.987 2070.29 238.987 2070.29 238.987C2066.97 238.322 2065.64 236.992 2066.97 233.667C2068.3 231.006 2067.63 228.346 2066.97 226.351C2065.64 223.025 2064.97 221.03 2065.64 217.704C2066.3 214.379 2064.97 210.388 2065.64 207.063C2066.97 201.742 2065.64 196.421 2066.3 191.1C2066.3 189.77 2067.63 187.775 2066.97 185.779C2066.3 185.114 2066.97 185.114 2068.3 185.114C2068.3 185.114 2069.63 185.114 2069.63 184.449C2069.63 183.784 2068.96 182.454 2068.3 182.454C2066.3 183.119 2066.97 181.789 2066.97 181.124C2066.97 178.463 2066.97 175.803 2068.96 173.142C2069.63 171.812 2070.96 169.817 2068.3 168.487C2067.63 168.487 2068.96 167.822 2068.96 167.156C2070.29 165.826 2072.29 163.831 2070.29 161.171C2069.63 160.505 2070.29 159.175 2070.96 157.845C2073.62 155.185 2070.96 151.194 2071.62 148.534C2071.62 147.203 2072.29 146.538 2072.95 145.208C2073.62 143.878 2075.61 143.213 2075.61 141.217C2075.61 140.552 2076.28 139.887 2077.61 139.887C2078.27 140.552 2077.61 141.217 2077.61 141.883C2076.94 144.543 2077.61 147.869 2078.27 150.529C2078.94 152.524 2077.61 154.52 2076.94 156.515C2076.28 157.845 2074.95 157.18 2074.28 157.18C2073.62 157.18 2072.95 157.18 2072.95 157.845C2072.95 158.51 2073.62 158.51 2073.62 158.51C2077.61 158.51 2080.27 159.84 2082.26 163.166C2084.26 166.491 2091.58 167.822 2094.9 165.826C2096.23 165.161 2096.9 164.496 2097.56 163.831C2099.56 163.166 2100.89 163.166 2101.55 165.161C2104.21 169.152 2108.2 171.147 2113.52 170.482C2117.51 169.817 2120.84 169.152 2124.83 171.147C2126.16 171.147 2128.16 170.482 2129.49 171.147C2129.49 171.147 2130.82 171.147 2130.15 171.147C2128.16 172.477 2129.49 172.477 2130.82 173.142C2131.48 173.807 2132.81 173.807 2132.81 172.477C2132.81 171.147 2134.14 170.482 2134.81 171.147C2136.14 173.807 2137.47 172.477 2138.8 172.477C2142.12 172.477 2145.45 172.477 2148.11 175.803C2148.11 176.468 2148.77 176.468 2149.44 175.803C2150.77 173.142 2152.1 174.473 2153.43 175.803C2154.1 176.468 2154.1 178.463 2156.09 175.803C2156.09 175.138 2158.75 175.138 2160.08 175.803C2162.74 176.468 2165.4 177.133 2168.06 178.463C2170.06 179.128 2171.39 177.798 2173.38 178.463C2176.04 179.793 2175.38 180.459 2174.05 181.789C2174.05 181.789 2173.38 182.454 2172.72 182.454C2170.72 183.784 2170.72 184.449 2172.72 186.444C2178.7 192.43 2184.02 199.081 2187.35 207.063L2188.02 207.728C2186.69 211.718 2190.01 214.379 2191.34 217.704C2192.01 218.369 2194.67 221.03 2190.01 220.365C2188.68 220.365 2189.35 222.36 2190.01 223.025C2194 228.346 2197.99 234.332 2201.32 240.983C2202.65 242.313 2202.65 244.308 2203.98 246.304C2204.64 247.634 2205.31 248.299 2205.97 248.964C2209.96 252.29 2213.29 255.615 2216.61 260.271C2219.28 264.926 2222.6 269.582 2225.26 273.573C2230.58 282.219 2236.57 290.2 2242.55 297.516C2248.54 304.167 2252.53 311.484 2257.19 318.8C2261.84 325.451 2265.83 332.102 2269.82 338.753C2273.15 344.739 2277.14 350.06 2281.13 355.38C2281.13 356.045 2281.79 356.045 2281.79 356.711C2283.13 360.036 2285.79 363.362 2287.78 366.022C2293.77 374.668 2298.42 383.98 2303.74 392.626L2311.72 404.598C2316.38 409.919 2319.71 415.905 2323.03 421.891L2331.01 433.862C2333.67 439.183 2337 444.504 2340.32 449.16C2340.99 449.825 2340.99 451.155 2342.32 451.155C2343.65 451.155 2342.98 449.825 2342.98 448.495C2344.31 445.834 2344.31 442.509 2344.31 439.183C2344.31 429.207 2342.98 419.23 2342.98 408.588C2342.98 399.942 2342.32 391.296 2343.65 381.984C2344.31 375.998 2342.32 369.347 2342.98 363.362C2343.65 358.041 2342.98 352.055 2343.65 346.734C2344.98 339.418 2344.31 332.102 2342.98 325.451C2342.32 320.13 2342.98 315.474 2342.98 310.818C2342.32 302.837 2342.32 294.191 2344.98 286.21C2346.31 284.214 2344.98 280.889 2344.98 278.228C2344.98 275.568 2344.98 273.573 2346.97 271.577C2348.31 269.582 2348.97 267.587 2347.64 265.592C2346.97 264.926 2344.98 261.601 2348.97 262.266C2350.3 262.266 2350.3 261.601 2349.64 260.936C2348.97 258.941 2348.97 257.61 2350.3 256.945C2350.97 256.28 2350.97 255.615 2350.97 254.95V252.955C2351.63 250.959 2352.96 244.973 2351.63 243.643C2350.97 241.648 2351.63 240.983 2352.3 240.318C2352.3 239.653 2352.96 238.987 2352.96 238.322C2351.63 233.667 2353.63 229.676 2353.63 225.02C2353.63 220.365 2353.63 215.709 2352.96 211.053C2352.96 205.732 2352.96 200.412 2353.63 195.091C2353.63 193.761 2354.29 192.43 2354.96 191.765C2357.62 189.105 2356.95 186.444 2353.63 185.114C2351.63 184.449 2350.97 183.784 2351.63 181.789C2352.3 178.463 2351.63 173.807 2355.62 171.147C2356.29 170.482 2356.29 169.817 2357.62 169.817C2362.94 170.482 2367.59 167.156 2372.91 168.487C2374.91 169.152 2377.57 169.152 2377.57 165.826C2377.57 162.501 2380.23 161.836 2382.89 163.166C2384.89 164.496 2387.55 165.161 2390.21 165.161C2398.19 165.161 2406.17 164.496 2413.48 167.822C2414.82 168.487 2415.48 167.156 2416.15 166.491C2416.81 165.826 2417.48 165.161 2418.81 166.491C2419.47 167.156 2420.14 167.822 2420.14 165.826C2420.14 165.161 2422.13 165.161 2422.13 165.826C2422.8 168.487 2425.46 168.487 2426.79 168.487C2428.78 169.152 2429.45 169.817 2430.78 171.147C2432.11 173.142 2430.11 173.142 2429.45 174.473C2431.44 174.473 2432.11 175.803 2430.11 177.133C2428.78 178.463 2426.79 179.793 2425.46 180.459C2422.13 181.789 2420.8 183.784 2420.8 187.11C2420.14 198.416 2420.14 209.723 2420.8 221.03C2421.47 223.69 2420.14 226.351 2420.14 229.011C2420.14 237.657 2420.8 245.638 2421.47 253.62C2421.47 254.285 2422.13 254.95 2421.47 256.28C2420.14 257.61 2420.14 257.61 2421.47 259.606C2422.13 260.936 2420.8 262.266 2420.14 263.596C2422.13 264.261 2422.8 265.592 2421.47 267.587V268.252C2417.48 270.247 2420.14 273.573 2420.8 275.568C2422.8 278.228 2421.47 278.228 2419.47 278.228C2418.14 278.894 2418.14 278.894 2418.81 280.224C2419.47 280.889 2420.8 282.884 2418.81 284.214C2418.14 284.214 2419.47 286.21 2420.8 286.875C2422.8 287.54 2422.13 289.535 2423.46 291.531C2423.46 291.531 2423.46 292.861 2422.8 292.861C2419.47 294.191 2420.8 295.521 2422.13 297.516C2422.8 298.182 2422.8 299.512 2422.13 300.177C2421.47 300.842 2421.47 301.507 2420.8 301.507C2420.14 301.507 2420.14 300.177 2420.14 300.177C2420.14 298.847 2419.47 298.182 2419.47 297.516C2418.81 296.851 2418.81 295.521 2418.14 296.186C2416.81 296.851 2417.48 297.516 2418.14 298.182V298.847C2415.48 302.837 2418.81 302.172 2420.8 302.837C2422.8 303.502 2423.46 305.498 2423.46 307.493V323.455C2423.46 326.116 2421.47 328.776 2422.13 331.437C2422.8 337.423 2423.46 343.408 2423.46 348.729C2422.8 360.701 2424.79 372.008 2424.13 383.315C2423.46 393.291 2423.46 403.933 2424.13 413.909C2425.46 427.876 2425.46 442.509 2426.79 457.141C2428.12 465.122 2426.12 473.768 2426.12 481.75C2426.12 489.066 2425.46 496.382 2424.79 503.698V507.024C2422.13 515.67 2422.8 524.316 2422.8 532.962V534.293C2421.47 548.26 2424.13 562.227 2423.46 576.194C2422.8 584.175 2423.46 592.822 2420.8 600.803C2420.14 602.798 2419.47 604.128 2417.48 604.794C2415.48 606.124 2413.49 607.454 2410.82 608.784C2408.83 609.449 2407.5 611.445 2404.84 608.784C2404.17 607.454 2400.85 608.784 2398.85 609.449C2396.86 609.449 2394.86 610.779 2393.53 607.454C2392.87 606.789 2392.2 607.454 2392.2 608.119C2392.2 609.449 2390.87 610.114 2390.21 609.449C2386.88 607.454 2384.22 610.779 2381.56 610.779C2375.57 610.779 2370.25 612.11 2364.93 612.11C2357.62 611.445 2350.3 610.779 2343.65 607.454C2340.99 606.124 2338.33 606.124 2335 604.794C2333.67 604.128 2332.34 604.128 2333.01 602.133C2333.01 600.803 2331.01 600.803 2330.35 601.468C2329.02 602.133 2327.69 602.133 2326.36 601.468V600.138C2327.69 599.473 2329.02 598.808 2331.01 598.808C2331.68 599.473 2332.34 599.473 2333.01 599.473C2334.34 600.803 2335 600.138 2335.67 598.808C2337 596.812 2336.33 596.147 2335 595.482C2334.34 594.817 2333.67 594.817 2333.01 594.152C2332.34 594.152 2331.01 594.152 2331.01 592.157C2331.68 590.826 2332.34 589.496 2334.34 589.496C2338.33 588.831 2338.33 588.166 2336.33 584.841C2331.01 574.864 2325.03 564.887 2317.05 556.906C2311.72 551.585 2309.06 544.934 2306.4 538.948C2305.07 535.623 2304.41 531.632 2301.08 528.972C2301.08 528.972 2300.42 527.642 2300.42 526.977C2298.42 520.326 2294.43 514.34 2290.44 509.019C2286.45 503.698 2281.79 499.042 2278.47 493.056C2275.14 486.405 2269.82 480.419 2267.16 473.103C2266.5 471.108 2265.17 469.778 2263.84 467.783C2258.52 458.471 2251.2 449.825 2243.22 441.844C2239.89 438.518 2237.23 434.527 2234.57 430.537C2230.58 423.221 2226.59 415.905 2221.94 408.588C2217.28 399.942 2213.29 391.961 2206.64 384.645C2199.32 375.998 2192.01 366.687 2185.36 356.711C2181.36 351.39 2177.37 345.404 2174.05 339.418C2172.72 336.757 2173.38 334.097 2172.05 331.437C2172.05 330.772 2172.05 330.106 2171.39 329.441C2170.06 328.776 2170.72 328.111 2171.39 327.446C2172.05 327.446 2173.38 326.781 2172.72 326.116L2171.39 324.786C2170.06 324.121 2170.72 325.451 2170.06 326.116C2169.39 327.446 2169.39 326.781 2168.73 326.116C2167.4 324.786 2166.73 322.79 2166.07 321.46C2164.74 317.469 2161.41 314.809 2160.08 311.484C2159.42 310.818 2159.42 310.153 2158.75 310.153C2157.42 310.153 2158.09 311.484 2157.42 312.149C2155.43 316.804 2155.43 322.125 2154.1 327.446C2152.77 333.432 2154.1 338.753 2155.43 344.739C2156.76 350.725 2158.09 356.71 2156.09 362.696C2156.09 364.027 2157.42 364.692 2157.42 366.022C2157.42 370.013 2158.75 374.668 2157.42 378.659C2156.76 379.989 2158.09 381.319 2158.09 382.649C2157.42 390.631 2156.76 398.612 2156.76 406.593V423.886C2156.09 430.537 2155.43 436.523 2155.43 443.174C2155.43 449.825 2156.09 455.811 2156.76 462.462C2156.76 475.099 2156.76 488.401 2156.09 501.038C2155.43 510.349 2156.09 519.66 2155.43 528.307C2155.43 534.958 2156.09 541.609 2155.43 548.26C2154.76 562.227 2153.43 576.194 2154.76 590.826C2154.76 591.491 2155.43 592.157 2154.76 592.822C2152.77 593.487 2153.43 594.817 2153.43 596.147C2154.1 597.477 2156.09 597.477 2156.76 596.812C2160.08 595.482 2160.08 596.812 2158.75 599.473C2157.42 602.133 2156.76 604.794 2154.1 606.789C2152.77 607.454 2152.1 608.119 2151.43 609.449C2148.11 615.435 2141.46 616.765 2135.47 618.096C2130.82 618.761 2126.16 620.091 2120.84 620.091C2118.18 620.091 2115.52 621.421 2112.86 621.421ZM2103.55 387.97C2104.21 387.97 2104.88 385.975 2105.54 385.31C2105.54 384.645 2104.88 383.98 2104.21 383.98C2102.88 383.98 2102.22 384.645 2102.22 385.975C2102.22 386.64 2102.22 388.635 2103.55 387.97ZM2116.85 377.994C2118.18 377.329 2118.84 376.664 2117.51 375.333C2116.85 374.668 2114.85 374.668 2116.18 373.338C2116.18 372.008 2112.86 370.013 2111.53 370.013C2110.86 370.678 2109.53 370.678 2109.53 371.343C2108.87 372.673 2110.86 372.008 2111.53 372.673C2111.53 372.673 2114.19 372.008 2111.53 374.003C2110.86 374.668 2112.86 375.998 2113.52 376.664C2114.85 377.994 2115.52 378.659 2116.85 377.994ZM2110.86 368.682C2110.86 370.013 2112.86 369.347 2112.86 368.017C2113.52 367.352 2113.52 366.687 2114.19 366.687C2116.85 367.352 2116.18 366.022 2115.52 364.692C2115.52 364.027 2115.52 363.362 2114.85 362.696C2115.52 362.031 2116.18 360.701 2114.85 360.701C2113.52 360.036 2113.52 362.031 2113.52 362.696C2113.52 364.692 2112.19 366.022 2112.19 368.017C2111.53 368.682 2109.53 367.352 2110.86 368.682ZM2114.85 195.091C2115.52 195.091 2115.52 194.426 2115.52 193.095C2114.19 191.765 2114.85 188.44 2111.53 187.775C2109.53 187.775 2109.53 188.44 2108.87 189.105C2108.2 190.435 2110.2 190.435 2110.2 191.765C2112.19 191.1 2112.86 192.43 2113.52 194.426C2114.19 195.091 2114.19 195.091 2114.85 195.091ZM2100.22 161.836C2098.89 160.505 2098.23 159.175 2097.56 158.51C2097.56 157.18 2097.56 156.515 2098.23 155.85C2098.23 155.185 2098.89 155.85 2098.89 155.185C2098.89 157.845 2100.89 159.175 2100.89 161.171L2100.22 161.836ZM2076.28 135.232C2073.62 134.566 2074.28 132.571 2073.62 131.241C2073.62 130.576 2073.62 129.246 2074.95 129.911C2076.28 129.911 2077.61 131.241 2077.61 133.236C2078.27 133.901 2077.61 135.232 2076.28 135.232ZM2654.5 612.775C2647.19 612.11 2638.54 612.775 2630.56 610.779C2623.24 608.784 2615.93 606.124 2610.6 600.138C2606.61 596.812 2603.95 593.487 2604.62 588.166C2604.62 587.501 2604.62 586.836 2603.95 586.171C2599.96 580.85 2602.62 575.529 2603.95 570.873C2605.28 566.218 2603.95 562.227 2600.63 558.901C2599.3 558.236 2601.96 554.246 2603.95 553.581C2605.28 553.581 2607.94 554.246 2607.94 552.25C2607.94 549.59 2605.28 551.585 2603.29 550.92C2603.29 550.92 2602.62 550.92 2601.96 550.255C2600.63 550.255 2597.97 550.92 2597.97 548.925C2597.97 548.26 2600.63 547.595 2601.96 547.595C2603.95 547.595 2605.95 547.595 2607.94 546.265C2609.27 544.269 2609.27 542.939 2606.61 541.609C2604.62 540.944 2602.62 538.948 2600.63 537.618C2598.63 535.623 2599.3 534.293 2601.29 534.293C2603.95 534.293 2605.95 532.963 2607.94 533.628C2612.6 534.293 2613.93 531.632 2615.26 528.307C2615.26 526.311 2615.93 525.646 2617.26 527.642C2618.59 529.637 2620.58 528.307 2621.91 526.977C2623.91 523.651 2627.23 524.316 2629.89 524.981C2633.22 525.646 2631.89 528.307 2633.22 530.302V532.962C2633.22 535.623 2634.55 536.288 2637.87 536.288C2643.19 536.953 2649.18 536.953 2654.5 535.623C2655.83 535.623 2657.16 534.958 2657.83 534.958C2659.82 534.293 2660.49 534.958 2661.15 536.288C2661.82 536.953 2660.49 538.283 2661.82 538.283C2662.48 537.618 2663.81 536.953 2663.15 536.288C2662.48 534.293 2663.81 534.293 2665.14 534.293C2669.8 534.293 2673.79 533.628 2677.78 531.632C2680.44 530.302 2682.44 530.302 2685.1 529.637C2687.09 528.972 2686.43 532.297 2687.76 530.967C2689.09 529.637 2687.09 528.307 2687.76 527.642C2687.76 526.977 2689.09 525.646 2689.75 526.312C2692.41 526.312 2694.41 524.316 2696.4 522.986C2698.4 522.321 2699.06 521.656 2699.73 520.326C2699.73 518.995 2701.06 519.661 2701.06 520.991C2701.72 521.656 2702.39 521.656 2703.05 520.991C2704.38 520.326 2703.72 519.66 2703.05 519.66C2702.39 518.995 2703.05 517.665 2703.05 517.665C2705.71 518.995 2705.71 517.665 2705.71 515.67C2705.05 515.67 2705.71 515.005 2705.71 514.34C2707.04 512.344 2709.04 512.344 2711.7 512.344C2709.7 509.019 2712.37 508.354 2714.36 507.689C2716.36 507.024 2715.69 503.698 2715.69 504.363C2718.35 507.024 2718.35 503.698 2718.35 503.033C2719.68 501.703 2718.35 499.707 2719.68 498.377C2725 493.056 2726.33 485.74 2728.99 479.089C2730.32 477.094 2730.32 473.768 2730.99 471.108C2732.32 465.122 2732.98 459.136 2734.31 453.15C2735.64 449.16 2736.31 446.499 2738.97 443.839C2739.63 443.174 2738.97 441.844 2738.3 440.513C2737.64 439.848 2736.31 439.183 2736.97 437.853C2736.97 437.188 2736.97 436.523 2737.64 436.523C2738.3 436.523 2738.3 437.188 2738.3 437.853C2738.3 438.518 2738.97 439.183 2739.63 438.518C2740.3 438.518 2740.3 437.188 2739.63 436.523C2738.97 435.193 2738.3 433.862 2738.3 432.532C2736.97 429.207 2739.63 427.211 2740.96 424.551C2740.96 423.886 2741.63 423.221 2740.96 422.556C2738.97 422.556 2738.3 422.556 2740.96 421.225C2742.29 421.225 2740.96 420.56 2740.96 419.895C2739.63 418.565 2738.97 416.57 2739.63 415.24C2740.3 414.574 2740.3 413.909 2739.63 413.909C2738.3 413.244 2738.3 412.579 2739.63 411.914C2740.96 411.914 2741.63 410.584 2741.63 409.919C2739.63 403.933 2738.97 397.947 2740.3 391.296C2740.96 390.631 2739.63 389.966 2739.63 388.635C2739.63 387.97 2738.97 386.64 2739.63 385.975C2742.29 382.65 2739.63 379.324 2739.63 375.998C2738.97 372.673 2739.63 369.347 2739.63 366.687C2740.96 358.706 2740.96 350.725 2743.62 343.408C2744.29 342.078 2743.62 340.083 2743.62 338.753C2743.62 335.427 2744.29 331.437 2744.96 328.776C2746.95 325.451 2744.29 323.455 2744.96 320.795C2745.62 316.804 2743.62 312.149 2746.29 308.823V308.158C2743.62 305.498 2744.96 302.837 2746.95 300.177C2746.95 298.847 2748.28 296.851 2745.62 296.186C2744.96 295.521 2744.96 293.526 2744.96 292.196C2745.62 291.531 2746.95 290.2 2744.29 289.535C2743.62 289.535 2744.29 288.205 2744.96 287.54C2746.29 286.21 2746.29 284.214 2745.62 282.884C2744.96 280.889 2744.29 279.559 2746.95 278.894C2748.28 278.228 2747.62 277.563 2746.95 277.563C2744.96 276.898 2744.29 275.568 2742.96 274.238V272.243C2744.29 271.577 2744.29 272.908 2744.29 272.908C2744.96 273.573 2745.62 273.573 2746.29 272.908C2746.95 272.243 2746.29 271.577 2745.62 271.577C2743.62 270.247 2743.62 269.582 2743.62 267.587C2742.96 263.596 2746.95 262.266 2746.95 258.941C2746.95 258.275 2748.28 258.275 2747.62 257.61C2747.62 257.61 2746.29 257.61 2746.29 258.275C2745.62 258.275 2744.96 258.275 2744.29 257.61C2743.62 256.945 2744.96 256.28 2744.96 256.28C2742.96 254.285 2746.29 251.624 2743.62 249.629C2742.96 248.299 2743.62 246.969 2743.62 245.639C2743.62 245.639 2743.62 244.973 2744.29 244.973C2744.96 245.638 2744.96 246.969 2745.62 246.304C2746.29 244.973 2745.62 244.308 2744.96 243.643C2744.29 242.978 2744.96 241.648 2744.96 240.983C2744.29 238.987 2747.62 237.657 2744.96 234.997C2743.62 234.332 2744.29 232.336 2745.62 231.006C2746.95 229.676 2746.95 228.346 2746.29 226.351C2744.96 223.69 2747.62 223.025 2748.28 221.03C2748.28 219.7 2748.95 219.7 2746.95 219.7C2745.62 220.365 2744.29 219.034 2744.96 217.704C2744.96 215.709 2744.29 213.714 2746.29 212.383C2746.95 211.718 2746.95 211.053 2746.29 210.388C2744.29 208.393 2746.29 206.397 2746.95 204.402C2748.28 203.072 2748.28 201.742 2746.29 200.412C2745.62 199.746 2745.62 199.081 2746.29 199.081C2748.28 197.086 2746.29 195.091 2746.29 192.43C2745.62 190.435 2746.29 188.44 2745.62 185.779C2745.62 183.784 2744.29 182.454 2742.29 182.454C2739.63 181.789 2740.3 180.459 2740.96 179.128C2742.29 177.798 2742.96 177.133 2744.29 176.468C2744.96 176.468 2746.29 175.803 2746.29 175.138C2746.95 172.477 2748.28 171.147 2750.28 169.817C2752.94 167.822 2756.93 168.487 2758.26 165.161C2758.92 163.831 2760.92 164.496 2762.25 165.161C2764.91 166.491 2767.57 165.826 2770.23 163.831C2770.89 162.501 2772.22 162.501 2773.55 162.501C2777.55 163.166 2780.87 162.501 2784.2 161.836H2785.53C2787.52 161.836 2788.19 163.166 2790.18 162.501C2792.18 162.501 2794.17 161.836 2796.17 161.171C2802.15 161.171 2808.14 161.836 2814.13 163.831C2816.12 164.496 2817.45 165.826 2820.11 165.826C2821.44 165.826 2822.77 168.487 2824.1 169.152C2826.1 171.147 2824.1 172.477 2823.44 173.807C2821.44 176.468 2820.78 179.128 2822.11 182.454C2824.77 186.444 2824.77 190.435 2825.43 195.091C2826.1 202.407 2825.43 209.723 2826.1 217.039C2826.76 221.695 2826.76 227.016 2826.1 231.671C2825.43 236.992 2825.43 241.648 2824.77 246.969C2824.1 250.294 2824.77 253.62 2824.77 256.945C2824.77 258.941 2825.43 260.271 2824.1 261.601C2822.77 262.931 2825.43 264.261 2824.77 265.592C2824.77 270.912 2822.77 275.568 2824.1 280.224C2825.43 285.545 2823.44 291.531 2823.44 297.516C2823.44 298.182 2823.44 298.182 2822.77 298.847C2822.11 299.512 2820.78 300.842 2822.77 300.842C2823.44 300.842 2823.44 301.507 2823.44 301.507C2820.11 304.167 2824.1 307.493 2822.77 310.818C2821.44 314.144 2822.77 318.135 2822.11 322.125C2820.78 326.781 2822.77 331.437 2822.11 336.757C2822.11 337.423 2822.11 338.088 2821.44 338.753C2821.44 339.418 2820.78 339.418 2820.78 340.083C2821.44 342.743 2820.78 345.404 2820.11 347.399C2820.11 348.064 2820.78 348.729 2820.78 348.729C2824.77 348.729 2820.78 351.39 2822.11 352.72C2820.78 356.045 2821.44 359.371 2821.44 362.696C2822.11 364.692 2820.78 366.687 2820.78 369.347C2822.11 373.338 2819.45 377.329 2821.44 381.319V382.649C2820.11 392.626 2820.78 401.937 2820.11 411.249C2819.45 423.886 2820.11 436.523 2818.12 448.495C2817.45 451.82 2817.45 454.48 2816.12 457.141C2814.79 459.801 2815.46 463.127 2814.79 465.787C2812.8 477.094 2811.47 487.736 2807.47 498.377C2806.14 503.033 2806.14 507.689 2804.81 512.344C2804.15 513.675 2803.48 515.67 2802.82 517C2802.15 518.995 2800.82 520.326 2800.82 522.321C2801.49 523.651 2799.49 524.316 2798.16 524.981C2798.16 524.981 2796.83 524.981 2796.83 525.646C2796.83 526.312 2798.16 526.312 2798.83 526.312C2799.49 526.312 2799.49 526.977 2798.83 528.307C2797.5 530.967 2796.17 533.628 2794.17 535.623C2792.84 536.953 2791.51 534.958 2790.85 535.623C2790.18 537.618 2792.84 536.953 2792.84 538.283C2792.84 538.948 2792.18 540.279 2790.85 540.944C2788.85 542.939 2786.86 546.265 2784.86 548.26C2780.87 551.585 2777.55 555.576 2774.22 559.567C2768.9 564.222 2762.91 566.883 2758.26 572.204C2756.93 573.534 2754.93 574.199 2753.6 575.529C2744.29 582.845 2733.65 587.501 2723.01 591.491C2716.36 594.152 2709.04 596.812 2702.39 598.808C2697.07 600.803 2691.75 602.798 2686.43 605.459C2676.45 609.449 2666.47 612.11 2654.5 612.775ZM3007.25 614.77C3003.93 614.77 3000.6 613.44 2997.28 614.77C2996.61 614.77 2995.95 614.77 2995.95 613.44C2994.62 608.784 2991.29 604.794 2991.96 599.473C2991.96 597.477 2990.63 595.482 2990.63 593.487C2990.63 584.84 2989.96 576.194 2989.96 567.548C2989.3 554.911 2988.63 542.274 2989.3 528.972C2989.3 520.991 2989.96 513.675 2989.96 505.693C2989.96 491.061 2990.63 475.764 2989.96 461.132C2989.3 449.825 2989.3 438.518 2989.96 427.211C2990.63 412.579 2991.29 398.612 2991.96 383.98C2992.62 378.659 2993.29 373.338 2993.29 368.017C2993.29 360.701 2994.62 353.385 2994.62 345.404C2995.28 338.753 2994.62 331.437 2995.28 324.121C2995.95 317.469 2995.95 310.153 2997.28 303.502C2997.94 298.847 2997.28 293.526 2997.94 288.87C2998.61 279.559 2999.27 270.912 2999.94 261.601C3000.6 252.955 2999.94 244.308 3000.6 235.662C3000.6 231.006 3001.27 226.351 3001.27 222.36C3000.6 220.365 3000.6 217.704 3000.6 215.709C2999.94 215.044 3000.6 213.714 3001.27 213.049C3003.93 211.718 3001.93 209.723 3002.6 207.728C3002.6 205.732 2999.27 203.072 3002.6 201.077C3001.93 197.751 3004.59 195.756 3004.59 193.095V192.43C3000.6 191.765 3003.26 188.44 3002.6 186.444C3002.6 185.114 3001.93 183.784 3001.93 182.454C3001.27 179.793 3001.93 176.468 3003.26 174.473C3004.59 171.812 3003.93 168.487 3005.92 166.491C3006.59 165.826 3005.26 164.496 3003.93 165.161C3002.6 165.826 3001.27 166.491 2999.94 166.491C3001.27 165.826 3001.93 164.496 3003.26 164.496C3005.92 162.501 3008.58 161.171 3008.58 157.845C3008.58 156.515 3009.25 155.85 3009.92 156.515C3011.25 157.18 3012.58 154.52 3013.24 157.18C3013.91 157.845 3015.24 159.175 3014.57 159.84C3014.57 163.831 3016.57 162.501 3018.56 161.836C3021.89 160.505 3025.88 160.505 3029.87 161.171C3033.19 161.836 3036.52 162.501 3039.18 163.166C3041.17 163.166 3045.17 159.84 3045.17 158.51C3045.83 155.85 3047.16 155.85 3048.49 157.18C3051.15 161.836 3055.14 159.84 3057.8 158.51C3061.13 157.845 3064.45 157.845 3067.11 158.51C3070.44 159.175 3073.1 157.18 3075.76 159.175C3078.42 160.505 3081.08 163.831 3081.08 166.491C3080.42 173.142 3079.75 173.807 3073.77 175.138C3071.1 175.803 3069.11 175.803 3069.77 179.793C3071.1 195.756 3071.1 211.718 3071.1 227.681C3071.1 238.987 3070.44 250.959 3069.77 262.931C3069.11 270.247 3069.77 276.898 3070.44 284.214C3071.77 290.2 3071.77 296.186 3071.77 302.172C3072.43 312.149 3072.43 322.79 3073.1 332.767C3073.1 345.404 3073.1 358.706 3072.43 372.008C3071.77 382.649 3070.44 393.956 3069.77 404.598C3069.77 414.574 3068.44 423.886 3068.44 433.862C3067.78 439.848 3068.44 446.499 3068.44 452.485C3068.44 460.466 3068.44 468.448 3067.78 475.764C3067.11 491.061 3066.45 505.693 3067.11 520.991C3067.78 531.632 3067.78 542.274 3067.11 553.581C3066.45 561.562 3065.78 569.543 3064.45 577.524C3063.79 582.845 3064.45 588.831 3064.45 594.152C3063.79 596.812 3067.11 598.808 3068.44 600.803C3068.44 601.468 3070.44 601.468 3071.1 600.803C3072.43 600.138 3073.76 600.138 3074.43 600.803C3077.09 601.468 3076.43 602.133 3075.1 604.128C3073.1 606.789 3069.11 608.119 3065.78 608.784C3059.13 611.445 3051.15 613.44 3044.5 612.775C3039.18 612.11 3035.19 615.435 3030.53 613.44C3022.55 617.43 3014.57 614.77 3007.25 614.77Z" fill="black"/>
</svg>
