<svg width="811" height="590" viewBox="0 0 811 590" fill="none" xmlns="http://www.w3.org/2000/svg">
<g clip-path="url(#clip0_321_17795)">
<path d="M521.979 0.137709C464.539 -1.00762 408.017 14.6558 359.36 45.2017C310.702 75.7477 272.031 119.846 248.098 172.075C247.808 172.718 247.34 173.264 246.749 173.65C246.159 174.036 245.47 174.246 244.764 174.253C244.058 174.261 243.365 174.066 242.766 173.692C242.168 173.318 241.688 172.78 241.385 172.143C231.823 152.578 217.454 135.776 199.67 123.208C181.886 110.641 161.225 102.752 139.591 100.27C139.001 100.207 138.404 100.288 137.851 100.504C137.298 100.72 136.806 101.065 136.415 101.512C136.024 101.958 135.746 102.493 135.605 103.07C135.464 103.646 135.464 104.249 135.605 104.825C143.682 138.778 161.342 169.694 186.484 193.899C187.07 194.457 187.456 195.192 187.585 195.99C187.714 196.789 187.577 197.607 187.196 198.32C186.816 199.033 186.212 199.602 185.477 199.94C184.742 200.277 183.917 200.364 183.128 200.188C120.884 186.54 55.7688 197.911 1.8323 231.845C1.29692 232.177 0.855115 232.638 0.548733 233.188C0.242352 233.738 0.081543 234.359 0.081543 234.988C0.081543 235.618 0.242352 236.238 0.548733 236.789C0.855115 237.339 1.29692 237.8 1.8323 238.132C33.7356 258.207 69.8748 270.579 107.388 274.267C144.901 277.955 182.757 272.858 217.959 259.38C218.554 259.145 219.199 259.068 219.832 259.157C220.465 259.246 221.065 259.497 221.572 259.886C222.079 260.275 222.477 260.789 222.726 261.378C222.975 261.967 223.067 262.611 222.994 263.246C216.62 322.308 228.238 381.918 256.325 434.263C284.412 486.609 327.659 529.248 380.397 556.592C433.134 583.936 492.903 594.708 551.869 587.498C610.835 580.289 666.247 555.433 710.843 516.189C755.44 476.945 787.14 425.143 801.789 367.573C816.437 310.002 813.351 249.35 792.935 193.563C772.519 137.777 735.726 89.4582 687.377 54.9427C639.028 20.4272 581.372 1.32533 521.979 0.137709ZM270.538 242.323H761.489C762.345 242.321 763.175 242.616 763.838 243.157C764.501 243.698 764.956 244.452 765.126 245.291C776.526 302.555 767.848 361.997 740.553 413.612C740.239 414.212 739.802 414.714 739.222 415.064C738.643 415.414 737.978 415.599 737.301 415.597H294.775C294.098 415.599 293.434 415.414 292.854 415.064C292.275 414.714 291.802 414.212 291.489 413.612C264.194 361.997 255.516 302.555 266.916 245.291C267.085 244.452 267.54 243.698 268.203 243.157C268.866 242.616 269.682 242.321 270.538 242.323Z" fill="black"/>
<path d="M441.967 328.961C442.004 324.266 441.11 319.609 439.339 315.26C437.567 310.912 434.952 306.957 431.645 303.624C428.337 300.29 424.402 297.643 420.068 295.838C415.733 294.033 411.083 293.103 406.388 293.103C401.692 293.103 397.043 294.033 392.708 295.838C388.373 297.643 384.438 300.29 381.131 303.624C377.823 306.957 375.208 310.912 373.437 315.26C371.665 319.609 370.772 324.266 370.808 328.961C370.772 333.657 371.665 338.313 373.437 342.662C375.208 347.011 377.823 350.965 381.131 354.299C384.438 357.632 388.373 360.277 392.708 362.082C397.043 363.888 401.692 364.818 406.388 364.818C411.083 364.818 415.733 363.888 420.068 362.082C424.402 360.277 428.337 357.632 431.645 354.299C434.952 350.965 437.567 347.011 439.339 342.662C441.11 338.313 442.004 333.657 441.967 328.961Z" fill="black"/>
<path d="M661.22 328.961C661.256 324.265 660.362 319.609 658.591 315.26C656.819 310.912 654.204 306.956 650.897 303.622C647.589 300.289 643.655 297.645 639.32 295.84C634.985 294.035 630.336 293.104 625.64 293.104C620.944 293.104 616.295 294.035 611.96 295.84C607.626 297.645 603.691 300.289 600.384 303.622C597.076 306.956 594.461 310.912 592.689 315.26C590.918 319.609 590.024 324.265 590.061 328.961C590.024 333.657 590.918 338.312 592.689 342.661C594.461 347.009 597.076 350.965 600.384 354.299C603.691 357.632 607.626 360.277 611.96 362.082C616.295 363.887 620.944 364.818 625.64 364.818C630.336 364.818 634.985 363.887 639.32 362.082C643.655 360.277 647.589 357.632 650.897 354.299C654.204 350.965 656.819 347.009 658.591 342.661C660.362 338.312 661.256 333.657 661.22 328.961Z" fill="black"/>
</g>
<defs>
<clipPath id="clip0_321_17795">
<rect width="811" height="590" fill="white"/>
</clipPath>
</defs>
</svg>
