<svg width="26" height="26" viewBox="0 0 26 26" fill="none" xmlns="http://www.w3.org/2000/svg">
<path d="M19.4248 12.5247C16.2447 13.258 13.406 12.706 13.406 12.706C13.406 12.706 15.718 10.9673 18.8951 10.2327C22.0727 9.50067 24.7649 9.41932 24.9113 10.0527C25.0565 10.686 22.5983 11.7927 19.4248 12.5247Z" fill="#F19A38"/>
<path d="M24.7946 10.1069L24.7894 10.0789C24.693 9.65091 22.4118 9.54955 18.9227 10.3576C16.3955 10.9376 14.4039 12.1749 13.7289 12.6336C14.5373 12.7469 16.8731 12.9869 19.3955 12.4042C22.6253 11.6562 24.7946 10.6149 24.7946 10.1069ZM13.1091 12.7762L13.3357 12.6096C13.3545 12.5882 15.7013 10.8442 18.8706 10.1122C21.7133 9.45624 24.8441 9.20022 25.0346 10.0242L25.0425 10.1069C25.0425 10.9242 22.2289 12.0029 19.4503 12.6456C16.2837 13.3776 13.4143 12.8336 13.3826 12.8309L13.1091 12.7762Z" fill="#F5F1A1"/>
<path d="M6.46172 15.5167C9.63878 14.7847 11.9481 13.042 11.9481 13.042C11.9481 13.042 9.10958 12.4927 5.93252 13.2273C2.75652 13.9593 0.300251 15.0687 0.445584 15.7007C0.592384 16.3314 3.28412 16.25 6.46172 15.5167Z" fill="#F19A38"/>
<path d="M11.6284 13.1179C10.8189 13.0032 8.48561 12.7659 5.95907 13.3472C2.72934 14.0939 0.562673 15.1379 0.562673 15.6432L0.568406 15.6725C0.664273 16.1019 2.94561 16.2005 6.43507 15.3965C8.96174 14.8125 10.9539 13.5766 11.6284 13.1179ZM0.316406 15.6432C0.316406 14.8259 3.12841 13.7472 5.90694 13.1045C9.07361 12.3752 11.9429 12.9165 11.9752 12.9219L12.2456 12.9739L12.0216 13.1432C12.0003 13.1592 9.65654 14.9072 6.48987 15.6379C3.64454 16.2952 0.513741 16.5499 0.323208 15.7299L0.316406 15.6432Z" fill="#F5F1A1"/>
<path d="M18.5869 9.60207C16.0547 11.6567 13.2615 12.4047 13.2615 12.4047C13.2615 12.4047 14.5733 9.82874 17.1093 7.77674C19.6416 5.72474 22.0239 4.46874 22.4375 4.97407C22.8443 5.47674 21.1203 7.55007 18.5869 9.60207Z" fill="#F19A38"/>
<path d="M22.3732 5.1699L22.3384 5.05259C22.0623 4.71125 19.9718 5.62057 17.1879 7.87257C15.1718 9.50324 13.9254 11.49 13.5186 12.198C14.292 11.946 16.4947 11.1352 18.5108 9.50591C21.016 7.47391 22.3732 5.75524 22.3732 5.1699ZM13.0212 12.5966L13.1494 12.3499C13.1639 12.3206 14.5024 9.72458 17.0295 7.68058C19.3024 5.84192 21.9999 4.2406 22.5322 4.89393L22.6202 5.1699C22.6202 5.95124 20.9947 7.81263 18.6639 9.69796C16.1415 11.746 13.3212 12.5166 13.292 12.5246L13.0212 12.5966Z" fill="#F5F1A1"/>
<path d="M8.25067 17.9734C10.7835 15.9214 12.0969 13.3467 12.0969 13.3467C12.0969 13.3467 9.30214 14.096 6.77041 16.1454C4.23441 18.2 2.51307 20.2707 2.91987 20.776C3.32774 21.2814 5.71307 20.0254 8.25067 17.9734Z" fill="#F19A38"/>
<path d="M11.8384 13.552C11.0622 13.804 8.86277 14.6146 6.8493 16.2453C4.34144 18.276 2.98517 19.9946 2.98517 20.5826L3.01851 20.6973C3.13051 20.836 3.64664 20.7946 4.7289 20.224C5.7289 19.6973 6.95344 18.8639 8.1717 17.8773C10.1852 16.2466 11.4321 14.26 11.8384 13.552ZM2.7373 20.5826C2.7373 19.8 4.36277 17.9346 6.69304 16.052C9.21597 14.0053 12.0373 13.2346 12.0654 13.2266L12.3357 13.1533L12.2092 13.4013C12.1961 13.4266 10.8545 16.0253 8.32797 18.0706C7.09717 19.068 5.85704 19.912 4.8441 20.4426C3.75344 21.0186 3.07064 21.1586 2.82531 20.8546L2.7373 20.5826Z" fill="#F5F1A1"/>
<path d="M16.5518 7.34387C15.1774 10.2972 12.9919 12.1973 12.9919 12.1973C12.9919 12.1973 13.0466 9.30387 14.4253 6.35187C15.8023 3.39588 17.3955 1.22125 17.9878 1.49725C18.5758 1.77059 17.9321 4.38787 16.5518 7.34387Z" fill="#F19A38"/>
<path d="M18.0781 2.12074C18.0781 1.83941 18.0259 1.6514 17.9317 1.61007C17.7675 1.53407 17.3249 1.79808 16.6009 2.78741C15.9317 3.69541 15.2009 4.97939 14.5369 6.40473C13.4394 8.75273 13.1899 11.0861 13.1327 11.8994C13.7181 11.3314 15.3462 9.63808 16.4421 7.29275C17.4342 5.15941 18.0781 3.13141 18.0781 2.12074ZM12.865 12.4741L12.8702 12.1954C12.8702 12.1674 12.9369 9.24342 14.3103 6.29809C14.9795 4.86209 15.7207 3.5634 16.4009 2.64073C17.1301 1.64073 17.6822 1.21938 18.0369 1.38604C18.2285 1.47404 18.3249 1.72208 18.3249 2.12074C18.3249 3.16474 17.6743 5.23539 16.6661 7.39672C15.2915 10.3421 13.0983 12.2714 13.0754 12.2927L12.865 12.4741Z" fill="#F5F1A1"/>
<path d="M10.9321 19.4021C12.3133 16.4461 12.3654 13.5527 12.3654 13.5527C12.3654 13.5527 10.18 15.4541 8.80504 18.4074C7.42277 21.3621 6.78677 23.9794 7.37064 24.2527C7.95864 24.5287 9.5545 22.3554 10.9321 19.4021Z" fill="#F19A38"/>
<path d="M12.2208 13.8526C11.6353 14.4193 10.0077 16.1126 8.91399 18.4593C7.91972 20.5913 7.27812 22.6206 7.27812 23.6313V23.634C7.27812 23.9126 7.33012 24.0966 7.42492 24.1406C7.58639 24.2166 8.03172 23.954 8.75572 22.9646C9.42238 22.0553 10.1557 20.7686 10.8181 19.3473C11.9172 16.9979 12.1661 14.6646 12.2208 13.8526ZM7.02905 23.634V23.6313C7.02905 22.5886 7.68225 20.5193 8.68745 18.3553C10.0651 15.4099 12.2583 13.4793 12.2807 13.462L12.4891 13.2793L12.4875 13.5553C12.4875 13.5833 12.4172 16.5086 11.0437 19.454C10.3755 20.8886 9.63278 22.1913 8.95572 23.1126C8.22332 24.11 7.67132 24.5313 7.32078 24.3673C7.12758 24.2766 7.02905 24.0286 7.02905 23.634Z" fill="#F5F1A1"/>
<path d="M13.7367 6.20324C13.794 9.46457 12.6659 12.1286 12.6659 12.1286C12.6659 12.1286 11.4446 9.50595 11.3872 6.24595C11.3299 2.98462 11.8075 0.333959 12.4607 0.323293C13.1059 0.309959 13.682 2.94591 13.7367 6.20324Z" fill="#F19A38"/>
<path d="M13.6145 6.44361L13.612 6.20624C13.552 2.6289 12.9015 0.438278 12.4615 0.448945C12.0624 0.454278 11.5052 2.29292 11.5052 5.72492C11.5052 5.89692 11.5083 6.06894 11.5109 6.24628C11.5572 8.83694 12.3547 11.0423 12.6615 11.7983C12.9307 11.0556 13.6145 8.93294 13.6145 6.44361ZM11.2615 5.72492C11.2615 3.07426 11.6333 0.214294 12.4563 0.198294C13.3025 0.183627 13.8109 3.28223 13.8629 6.20357C13.9255 9.45957 12.7921 12.1516 12.7787 12.1756L12.6719 12.4329L12.552 12.1809C12.54 12.1542 11.3213 9.49558 11.264 6.24758C11.2615 6.07158 11.2615 5.89692 11.2615 5.72492Z" fill="#F5F1A1"/>
<path d="M13.9717 19.5057C13.9118 16.2457 12.6903 13.623 12.6903 13.623C12.6903 13.623 11.5622 16.287 11.6201 19.547C11.6747 22.807 12.2477 25.4377 12.8955 25.427C13.5493 25.4164 14.0263 22.7657 13.9717 19.5057Z" fill="#F19A38"/>
<path d="M12.6961 13.9534C12.4175 14.7214 11.6961 16.948 11.7451 19.544C11.805 23.1253 12.4561 25.312 12.8955 25.304C13.2946 25.2974 13.8518 23.4614 13.8518 20.0281C13.8518 19.8574 13.8493 19.6827 13.8466 19.5053C13.7998 16.9133 13.0023 14.7081 12.6961 13.9534ZM11.4919 19.304C11.4919 16.1667 12.5679 13.5987 12.5758 13.576L12.6851 13.3174L12.805 13.5707C12.8185 13.596 14.0373 16.252 14.0946 19.5027C14.0971 19.68 14.0971 19.8574 14.0971 20.0281C14.0971 22.6801 13.7211 25.536 12.8987 25.552C12.057 25.568 11.5466 22.468 11.4946 19.5467L11.4919 19.304Z" fill="#F5F1A1"/>
<path d="M8.80504 7.34387C10.18 10.2972 12.3654 12.1973 12.3654 12.1973C12.3654 12.1973 12.3133 9.30387 10.9321 6.35187C9.5545 3.39588 7.95864 1.22125 7.37064 1.49725C6.78677 1.77059 7.42277 4.38787 8.80504 7.34387Z" fill="#F19A38"/>
<path d="M12.2208 11.8994C12.1635 11.0834 11.914 8.75006 10.8181 6.40473C10.1557 4.97939 9.42238 3.69541 8.75572 2.78741C8.03172 1.79808 7.58639 1.53407 7.42492 1.61007C7.33012 1.6514 7.27812 1.83941 7.27812 2.12074C7.27812 3.13141 7.91972 5.15941 8.91399 7.29275C10.0077 9.63808 11.6353 11.3314 12.2208 11.8994ZM7.02905 2.12074C7.02905 1.72208 7.12758 1.47404 7.32078 1.38604C7.67132 1.21938 8.22332 1.64073 8.95572 2.64073C9.63278 3.5634 10.3755 4.86209 11.0437 6.29809C12.4172 9.24342 12.4875 12.1674 12.4875 12.1954L12.4891 12.4741L12.2807 12.2927C12.2583 12.2714 10.0651 10.3421 8.68745 7.39672C7.68225 5.23539 7.02905 3.16474 7.02905 2.12074Z" fill="#F5F1A1"/>
<path d="M14.4253 19.4021C13.0466 16.4461 12.9919 13.5527 12.9919 13.5527C12.9919 13.5527 15.1774 15.4541 16.5518 18.4074C17.9321 21.3621 18.5758 23.9794 17.9878 24.2527C17.3955 24.5287 15.8023 22.3554 14.4253 19.4021Z" fill="#F19A38"/>
<path d="M18.0781 23.6313C18.0781 22.6206 17.4342 20.5913 16.4421 18.4593C15.3462 16.11 13.7181 14.4193 13.1327 13.8526C13.1899 14.6646 13.4394 16.9979 14.5369 19.3473C15.2009 20.7686 15.9317 22.0553 16.6009 22.9646C17.3249 23.954 17.7675 24.2166 17.9317 24.1406C18.0259 24.0966 18.0781 23.9126 18.0781 23.6313ZM12.865 13.2793L13.0754 13.462C13.0983 13.4793 15.2915 15.4099 16.6661 18.3553C17.6743 20.5193 18.3249 22.5886 18.3249 23.6313C18.3249 24.0286 18.2285 24.2766 18.0369 24.3673C17.6822 24.5313 17.1301 24.11 16.4009 23.1126C15.7207 22.1913 14.9795 20.8886 14.3103 19.454C12.9369 16.5086 12.8702 13.5833 12.8702 13.5553L12.865 13.2793Z" fill="#F5F1A1"/>
<path d="M6.77041 9.60207C9.30214 11.6567 12.0969 12.4047 12.0969 12.4047C12.0969 12.4047 10.7835 9.82874 8.24747 7.77674C5.71307 5.72474 3.32774 4.46874 2.91987 4.97407C2.51307 5.47674 4.23441 7.55007 6.77041 9.60207Z" fill="#F19A38"/>
<path d="M11.8384 12.198C11.4321 11.49 10.1852 9.50324 8.1717 7.87257C5.38784 5.62057 3.29464 4.71125 3.01851 5.05259L2.98517 5.1699C2.98517 5.75524 4.34144 7.47391 6.8493 9.50591C8.86277 11.1379 11.0654 11.946 11.8384 12.198ZM2.7373 5.1699L2.82531 4.89393C3.35704 4.2406 6.0545 5.84192 8.32797 7.68058C10.8545 9.72458 12.1961 12.3206 12.2092 12.3499L12.3357 12.5966L12.0654 12.5246C12.0373 12.5166 9.21597 11.746 6.69304 9.69796C4.36277 7.81263 2.7373 5.95124 2.7373 5.1699Z" fill="#F5F1A1"/>
<path d="M17.1067 17.9734C14.5733 15.9214 13.2615 13.3467 13.2615 13.3467C13.2615 13.3467 16.0547 14.096 18.5869 16.1454C21.1203 18.2 22.8443 20.2707 22.4375 20.776C22.0239 21.2814 19.6416 20.0254 17.1067 17.9734Z" fill="#F19A38"/>
<path d="M22.3732 20.5826C22.3732 19.9946 21.016 18.276 18.5108 16.2453C16.4972 14.6146 14.292 13.804 13.5186 13.552C13.9254 14.26 15.1718 16.2466 17.1852 17.8773C19.9718 20.1306 22.0655 21.0387 22.3384 20.6973L22.3732 20.5826ZM13.0212 13.1533L13.292 13.2266C13.3212 13.2346 16.1415 14.0053 18.6639 16.052C20.9947 17.9346 22.6202 19.8 22.6202 20.5826L22.5322 20.8546C22.0024 21.5106 19.3024 19.9093 17.0295 18.0706C14.5024 16.0253 13.1639 13.4266 13.1494 13.4013L13.0212 13.1533Z" fill="#F5F1A1"/>
<path d="M5.93252 12.5247C9.10692 13.258 11.9481 12.706 11.9481 12.706C11.9481 12.706 9.63878 10.9673 6.46172 10.2327C3.28412 9.50067 0.592384 9.41932 0.445584 10.0527C0.300251 10.686 2.75652 11.7927 5.93252 12.5247Z" fill="#F19A38"/>
<path d="M11.6284 12.6336C10.9539 12.1749 8.95654 10.9376 6.43254 10.3576C2.94561 9.54955 0.664273 9.65091 0.568406 10.0789L0.562673 10.1069C0.562673 10.6149 2.72934 11.6562 5.95907 12.4042C8.48987 12.9869 10.8189 12.7469 11.6284 12.6336ZM0.316406 10.1069L0.323208 10.0242C0.513741 9.20022 3.64454 9.45624 6.48827 10.1122C9.65654 10.8442 12.0003 12.5882 12.0216 12.6096L12.2456 12.7762L11.9752 12.8309C11.9429 12.8336 9.07361 13.3776 5.90694 12.6456C3.12841 12.0029 0.316406 10.9242 0.316406 10.1069Z" fill="#F5F1A1"/>
<path d="M18.8951 15.5167C15.718 14.7847 13.406 13.042 13.406 13.042C13.406 13.042 16.2447 12.4927 19.4248 13.2273C22.5983 13.9593 25.0565 15.0687 24.9113 15.7007C24.7649 16.3314 22.0727 16.25 18.8951 15.5167Z" fill="#F19A38"/>
<path d="M24.7946 15.6432C24.7946 15.1379 22.6253 14.0939 19.3955 13.3472C16.8731 12.7659 14.5373 13.0032 13.7289 13.1179C14.4039 13.5766 16.3987 14.8125 18.9227 15.3965C22.4118 16.2005 24.693 16.1019 24.7894 15.6725L24.7946 15.6432ZM13.1091 12.9739L13.3826 12.9219C13.4143 12.9165 16.2837 12.3752 19.4503 13.1045C22.2289 13.7472 25.0425 14.8259 25.0425 15.6432L25.0346 15.7299C24.8441 16.5499 21.7133 16.2952 18.8706 15.6352C15.7013 14.9072 13.3545 13.1592 13.3357 13.1432L13.1091 12.9739Z" fill="#F5F1A1"/>
<path d="M19.3275 14.0495C16.0702 14.0495 13.4275 12.8748 13.4275 12.8748C13.4275 12.8748 16.0702 11.7002 19.3275 11.7002C22.5915 11.7002 25.2342 12.2241 25.2342 12.8748C25.2342 13.5241 22.5915 14.0495 19.3275 14.0495Z" fill="#F19A38"/>
<path d="M25.1116 12.8748C25.1116 12.4348 22.9116 11.8229 19.3277 11.8229C16.7371 11.8229 14.5183 12.5828 13.7584 12.8748C14.5183 13.1668 16.7371 13.9268 19.3277 13.9268C22.9116 13.9268 25.1116 13.3148 25.1116 12.8748ZM13.1199 12.8748L13.3772 12.7602C13.4037 12.7468 16.0808 11.5762 19.3277 11.5762C22.2532 11.5762 25.3568 12.0308 25.3568 12.8748C25.3568 13.7188 22.2532 14.1748 19.3277 14.1748C16.0808 14.1748 13.4037 13.0002 13.3772 12.9895L13.1199 12.8748Z" fill="#F5F1A1"/>
<path d="M6.02665 14.0495C9.28704 14.0495 11.9308 12.8748 11.9308 12.8748C11.9308 12.8748 9.28704 11.7002 6.02665 11.7002C2.76571 11.7002 0.123047 12.2241 0.123047 12.8748C0.123047 13.5241 2.76571 14.0495 6.02665 14.0495Z" fill="#F19A38"/>
<path d="M11.6015 12.8748C10.8385 12.5828 8.6172 11.8229 6.02653 11.8229C2.44533 11.8229 0.245335 12.4348 0.245335 12.8748C0.245335 13.3148 2.44533 13.9268 6.02653 13.9268C8.6172 13.9268 10.8385 13.1668 11.6015 12.8748ZM0 12.8748C0 12.0308 3.10413 11.5762 6.02653 11.5762C9.27333 11.5762 11.9536 12.7468 11.9828 12.7602L12.2375 12.8748L11.9828 12.9895C11.9536 13.0002 9.27333 14.1748 6.02653 14.1748C3.10413 14.1748 0 13.7188 0 12.8748Z" fill="#F5F1A1"/>
<path d="M19.1712 11.0161C16.242 12.4454 13.3513 12.5468 13.3513 12.5468C13.3513 12.5468 15.2103 10.3335 18.1409 8.90412C21.0727 7.47345 23.6769 6.78942 23.9633 7.36942C24.2472 7.95609 22.1008 9.58543 19.1712 11.0161Z" fill="#F19A38"/>
<path d="M23.8655 7.48737L23.8519 7.42468C23.7733 7.26601 23.2639 7.19132 22.0759 7.50332C20.9853 7.79266 19.6041 8.32867 18.1962 9.01667C15.8681 10.1513 14.2014 11.8047 13.6494 12.402C14.4587 12.3314 16.7921 12.0394 19.1171 10.9047C22.0494 9.47402 23.8655 8.0167 23.8655 7.48737ZM13.0759 12.6833L13.2587 12.4687C13.2707 12.446 15.1666 10.2167 18.0895 8.79271C19.5109 8.09671 20.9066 7.55268 22.0109 7.26068C23.2093 6.94868 23.9014 6.96737 24.0733 7.31804L24.1119 7.48737C24.1119 8.3127 21.6562 9.94338 19.2238 11.1287C16.3082 12.5527 13.3827 12.67 13.3546 12.6727L13.0759 12.6833Z" fill="#F5F1A1"/>
<path d="M7.21574 16.8498C10.1464 15.4191 12.0048 13.2031 12.0048 13.2031C12.0048 13.2031 9.11161 13.3045 6.18495 14.7352C3.25588 16.1645 1.10628 17.7951 1.39281 18.3778C1.67974 18.9645 4.28348 18.2791 7.21574 16.8498Z" fill="#F19A38"/>
<path d="M11.7091 13.3497C10.8955 13.4163 8.56792 13.711 6.23978 14.847C3.30805 16.2763 1.49192 17.735 1.49192 18.263L1.50498 18.3257C1.58418 18.4844 2.09712 18.5603 3.28098 18.247C4.37058 17.9617 5.75085 17.4244 7.16125 16.7377C9.48938 15.599 11.1544 13.9457 11.7091 13.3497ZM1.24512 18.263C1.24512 17.4377 3.70125 15.807 6.13045 14.623C9.04925 13.1977 11.9747 13.0804 12.0023 13.079L12.281 13.0684L12.0987 13.2844C12.081 13.3044 10.1903 15.5337 7.26792 16.9617C5.84658 17.6537 4.45032 18.195 3.34405 18.487C2.14658 18.8017 1.45605 18.7844 1.28098 18.435L1.24512 18.263Z" fill="#F5F1A1"/>
<path d="M17.7014 8.35777C15.6904 10.9271 13.1384 12.2871 13.1384 12.2871C13.1384 12.2871 13.8415 9.47912 15.8494 6.90979C17.8546 4.34179 19.8956 2.58046 20.4066 2.9818C20.9202 3.38313 19.7066 5.78711 17.7014 8.35777Z" fill="#F19A38"/>
<path d="M20.4007 3.30488L20.3299 3.08085C20.1925 2.97152 19.6982 3.12887 18.7674 3.92753C17.917 4.66487 16.9113 5.75023 15.9419 6.98756C14.3513 9.02889 13.5779 11.2462 13.3435 12.0249C14.0393 11.6075 16.0075 10.3236 17.6007 8.28222C19.2206 6.20622 20.4007 4.11288 20.4007 3.30488ZM12.9529 12.5262L13.0179 12.2555C13.0231 12.2275 13.7503 9.39424 15.7503 6.83424C16.7258 5.58357 17.7393 4.48754 18.6086 3.73821C19.5435 2.93288 20.1794 2.64352 20.4846 2.88352C20.5941 2.96886 20.6513 3.11021 20.6513 3.30488C20.6513 4.17554 19.4794 6.28487 17.7966 8.43554C15.7941 10.9955 13.2206 12.3809 13.1955 12.3969L12.9529 12.5262Z" fill="#F5F1A1"/>
<path d="M9.51096 18.8421C11.5162 16.2715 12.2187 13.4648 12.2187 13.4648C12.2187 13.4648 9.66669 14.8235 7.65629 17.3941C5.65202 19.9648 4.43749 22.3675 4.95056 22.7688C5.46149 23.1701 7.50256 21.4101 9.51096 18.8421Z" fill="#F19A38"/>
<path d="M12.0138 13.7246C11.3165 14.1433 9.34983 15.4273 7.75663 17.4686C6.13623 19.5446 4.95663 21.638 4.95663 22.446L5.0269 22.6726C5.37116 22.9406 7.20703 21.5859 9.41236 18.7633C11.0086 16.7219 11.7764 14.5059 12.0138 13.7246ZM4.70703 22.446C4.70703 21.574 5.87797 19.4673 7.55757 17.3153C9.56023 14.7553 12.1362 13.3673 12.1618 13.3553L12.4045 13.2246L12.3389 13.4953C12.3337 13.5246 11.607 16.3579 9.60703 18.9166C7.8113 21.2193 5.53783 23.386 4.87116 22.8646C4.76436 22.782 4.70703 22.6406 4.70703 22.446Z" fill="#F5F1A1"/>
<path d="M19.1712 11.0161C16.242 12.4454 13.3513 12.5468 13.3513 12.5468C13.3513 12.5468 15.2103 10.3335 18.1409 8.90412C21.0727 7.47345 23.6769 6.78942 23.9633 7.36942C24.2472 7.95609 22.1008 9.58543 19.1712 11.0161Z" fill="#F19A38"/>
<path d="M23.8655 7.48737L23.8519 7.42468C23.7733 7.26601 23.2639 7.19132 22.0759 7.50332C20.9853 7.79266 19.6041 8.32867 18.1962 9.01667C15.8681 10.1513 14.2014 11.8047 13.6494 12.402C14.4587 12.3314 16.7921 12.0394 19.1171 10.9047C22.0494 9.47402 23.8655 8.0167 23.8655 7.48737ZM13.0759 12.6833L13.2587 12.4687C13.2707 12.446 15.1666 10.2167 18.0895 8.79271C19.5109 8.09671 20.9066 7.55268 22.0109 7.26068C23.2093 6.94868 23.9014 6.96737 24.0733 7.31804L24.1119 7.48737C24.1119 8.3127 21.6562 9.94338 19.2238 11.1287C16.3082 12.5527 13.3827 12.67 13.3546 12.6727L13.0759 12.6833Z" fill="#F5F1A1"/>
<path d="M7.21574 16.8498C10.1464 15.4191 12.0048 13.2031 12.0048 13.2031C12.0048 13.2031 9.11161 13.3045 6.18495 14.7352C3.25588 16.1645 1.10628 17.7951 1.39281 18.3778C1.67974 18.9645 4.28348 18.2791 7.21574 16.8498Z" fill="#F19A38"/>
<path d="M11.7091 13.3497C10.8955 13.4163 8.56792 13.711 6.23978 14.847C3.30805 16.2763 1.49192 17.735 1.49192 18.263L1.50498 18.3257C1.58418 18.4844 2.09712 18.5603 3.28098 18.247C4.37058 17.9617 5.75085 17.4244 7.16125 16.7377C9.48938 15.599 11.1544 13.9457 11.7091 13.3497ZM1.24512 18.263C1.24512 17.4377 3.70125 15.807 6.13045 14.623C9.04925 13.1977 11.9747 13.0804 12.0023 13.079L12.281 13.0684L12.0987 13.2844C12.081 13.3044 10.1903 15.5337 7.26792 16.9617C5.84658 17.6537 4.45032 18.195 3.34405 18.487C2.14658 18.8017 1.45605 18.7844 1.28098 18.435L1.24512 18.263Z" fill="#F5F1A1"/>
<path d="M17.7014 8.35777C15.6904 10.9271 13.1384 12.2871 13.1384 12.2871C13.1384 12.2871 13.8415 9.47912 15.8494 6.90979C17.8546 4.34179 19.8956 2.58046 20.4066 2.9818C20.9202 3.38313 19.7066 5.78711 17.7014 8.35777Z" fill="#F19A38"/>
<path d="M20.4007 3.30488L20.3299 3.08085C20.1925 2.97152 19.6982 3.12887 18.7674 3.92753C17.917 4.66487 16.9113 5.75023 15.9419 6.98756C14.3513 9.02889 13.5779 11.2462 13.3435 12.0249C14.0393 11.6075 16.0075 10.3236 17.6007 8.28222C19.2206 6.20622 20.4007 4.11288 20.4007 3.30488ZM12.9529 12.5262L13.0179 12.2555C13.0231 12.2275 13.7503 9.39424 15.7503 6.83424C16.7258 5.58357 17.7393 4.48754 18.6086 3.73821C19.5435 2.93288 20.1794 2.64352 20.4846 2.88352C20.5941 2.96886 20.6513 3.11021 20.6513 3.30488C20.6513 4.17554 19.4794 6.28487 17.7966 8.43554C15.7941 10.9955 13.2206 12.3809 13.1955 12.3969L12.9529 12.5262Z" fill="#F5F1A1"/>
<path d="M9.51096 18.8421C11.5162 16.2715 12.2187 13.4648 12.2187 13.4648C12.2187 13.4648 9.66669 14.8235 7.65629 17.3941C5.65202 19.9648 4.43749 22.3675 4.95056 22.7688C5.46149 23.1701 7.50256 21.4101 9.51096 18.8421Z" fill="#F19A38"/>
<path d="M12.0138 13.7246C11.3165 14.1433 9.34983 15.4273 7.75663 17.4686C6.13623 19.5446 4.95663 21.638 4.95663 22.446L5.0269 22.6726C5.37116 22.9406 7.20703 21.5859 9.41236 18.7633C11.0086 16.7219 11.7764 14.5059 12.0138 13.7246ZM4.70703 22.446C4.70703 21.574 5.87797 19.4673 7.55757 17.3153C9.56023 14.7553 12.1362 13.3673 12.1618 13.3553L12.4045 13.2246L12.3389 13.4953C12.3337 13.5246 11.607 16.3579 9.60703 18.9166C7.8113 21.2193 5.53783 23.386 4.87116 22.8646C4.76436 22.782 4.70703 22.6406 4.70703 22.446Z" fill="#F5F1A1"/>
<path d="M15.2104 6.61546C14.5342 9.80212 12.8328 12.1435 12.8328 12.1435C12.8328 12.1435 12.2342 9.3128 12.9114 6.12614C13.589 2.93814 14.6541 0.459438 15.2864 0.594105C15.9249 0.730105 15.8874 3.42479 15.2104 6.61546Z" fill="#F19A38"/>
<path d="M15.6199 2.32002C15.6199 1.19202 15.4278 0.74932 15.2636 0.715986C14.833 0.622653 13.7756 2.64802 13.0344 6.15069C12.821 7.14802 12.7131 8.21602 12.7131 9.32269C12.7131 10.4667 12.8303 11.3747 12.9038 11.82C13.3464 11.1374 14.5491 9.12266 15.0918 6.58799C15.4278 5.00532 15.6199 3.44802 15.6199 2.32002ZM12.4636 9.32269C12.4636 8.20002 12.573 7.11467 12.7918 6.09867C13.3986 3.24 14.4892 0.297343 15.3183 0.473343C15.6824 0.55201 15.8678 1.17202 15.8678 2.32002C15.8678 3.48136 15.6772 5.01868 15.333 6.64001C14.6584 9.81734 12.9532 12.192 12.9344 12.216L12.7704 12.4427L12.7131 12.1693C12.7106 12.156 12.4636 10.9814 12.4636 9.32269Z" fill="#F5F1A1"/>
<path d="M12.4454 19.6261C13.123 16.4381 12.5239 13.6074 12.5239 13.6074C12.5239 13.6074 10.823 15.9487 10.1469 19.1354C9.46925 22.3261 9.43232 25.0221 10.0682 25.1541C10.7042 25.2901 11.7682 22.8154 12.4454 19.6261Z" fill="#F19A38"/>
<path d="M12.453 13.9303C12.0103 14.6156 10.8077 16.629 10.2675 19.1623C9.93008 20.7463 9.73688 22.3009 9.73688 23.4303C9.73688 24.5583 9.93008 25.001 10.0942 25.0343C10.5233 25.1263 11.5806 23.1023 12.3223 19.5996C12.5369 18.5996 12.6437 17.5343 12.6437 16.4303C12.6437 15.2849 12.5259 14.3756 12.453 13.9303ZM9.48901 23.4303C9.48901 22.2663 9.67955 20.733 10.0233 19.113C10.7009 15.933 12.4035 13.5583 12.4223 13.5343L12.5863 13.3076L12.6437 13.5809C12.6462 13.5943 12.8926 14.7689 12.8926 16.4303C12.8926 17.5529 12.7833 18.6356 12.5675 19.6516C11.9582 22.5116 10.8702 25.4516 10.0421 25.277C9.67702 25.1983 9.48901 24.5796 9.48901 23.4303Z" fill="#F5F1A1"/>
<path d="M10.1469 6.61546C10.823 9.80212 12.5239 12.1435 12.5239 12.1435C12.5239 12.1435 13.123 9.3128 12.4454 6.12614C11.7682 2.93814 10.7042 0.459438 10.0682 0.594105C9.43232 0.730105 9.46925 3.42479 10.1469 6.61546Z" fill="#F19A38"/>
<path d="M12.6437 9.32269C12.6437 8.21602 12.5369 7.14802 12.3223 6.15069C11.5806 2.64802 10.5233 0.622653 10.0942 0.715986C9.93008 0.74932 9.73688 1.19202 9.73688 2.32002C9.73688 3.44802 9.93008 5.00532 10.2675 6.58799C10.8077 9.12266 12.0103 11.1374 12.453 11.82C12.5259 11.3747 12.6437 10.4667 12.6437 9.32269ZM9.48901 2.32002C9.48901 1.17202 9.67702 0.55201 10.0421 0.473343C10.8702 0.297343 11.9582 3.24 12.5675 6.09867C12.7833 7.11467 12.8926 8.20002 12.8926 9.32269C12.8926 10.9814 12.6462 12.156 12.6437 12.1693L12.5863 12.4427L12.4223 12.216C12.4035 12.192 10.7009 9.81734 10.0233 6.64001C9.67955 5.01868 9.48901 3.48136 9.48901 2.32002Z" fill="#F5F1A1"/>
<path d="M12.9114 19.6261C12.2342 16.4381 12.8328 13.6074 12.8328 13.6074C12.8328 13.6074 14.5342 15.9487 15.2104 19.1354C15.8874 22.3261 15.9249 25.0221 15.2864 25.1541C14.6541 25.2901 13.589 22.8154 12.9114 19.6261Z" fill="#F19A38"/>
<path d="M12.9038 13.9303C12.8303 14.3756 12.7131 15.2849 12.7131 16.4303C12.7131 17.5343 12.821 18.5996 13.0344 19.5996C13.7756 23.1023 14.833 25.1263 15.2636 25.0343C15.4278 25.001 15.6199 24.5583 15.6199 23.4303C15.6199 22.3009 15.4278 20.7463 15.0918 19.1623C14.5491 16.6263 13.3464 14.6129 12.9038 13.9303ZM12.4636 16.4303C12.4636 14.7689 12.7106 13.5943 12.7131 13.5809L12.7704 13.3076L12.9344 13.5343C12.9532 13.5583 14.6584 15.933 15.333 19.113C15.6772 20.733 15.8678 22.2689 15.8678 23.4303C15.8678 24.5796 15.6824 25.1983 15.3183 25.277C14.4892 25.4516 13.3986 22.5116 12.7918 19.6516C12.573 18.6356 12.4636 17.5529 12.4636 16.4303Z" fill="#F5F1A1"/>
<path d="M7.65629 8.35777C9.66669 10.9271 12.2187 12.2871 12.2187 12.2871C12.2187 12.2871 11.5162 9.47912 9.51096 6.90979C7.50256 4.34179 5.46149 2.58046 4.95056 2.9818C4.43749 3.38313 5.65202 5.78711 7.65629 8.35777Z" fill="#F19A38"/>
<path d="M12.0138 12.0246C11.7764 11.2459 11.0086 9.02864 9.41236 6.9873C7.20703 4.1673 5.37116 2.80726 5.0269 3.0806L4.95663 3.30462C4.95663 4.11262 6.1337 6.20597 7.75663 8.28196C9.34983 10.3233 11.3165 11.6073 12.0138 12.0246ZM4.70703 3.30462C4.70703 3.10995 4.76436 2.9686 4.87116 2.88327C5.53783 2.3646 7.8113 4.53132 9.60703 6.83398C11.607 9.39398 12.3337 12.2273 12.3389 12.2553L12.4045 12.526L12.1618 12.3966C12.1362 12.3806 9.56023 10.9953 7.55757 8.43529C5.87797 6.28462 4.70703 4.17529 4.70703 3.30462Z" fill="#F5F1A1"/>
<path d="M15.8494 18.8421C13.8415 16.2715 13.1384 13.4648 13.1384 13.4648C13.1384 13.4648 15.6904 14.8235 17.7014 17.3941C19.7066 19.9648 20.9202 22.3675 20.4066 22.7688C19.8956 23.1701 17.8546 21.4101 15.8494 18.8421Z" fill="#F19A38"/>
<path d="M20.4007 22.446C20.4007 21.638 19.2206 19.5446 17.6007 17.4686C16.0075 15.4273 14.0393 14.1433 13.3435 13.7246C13.5779 14.5059 14.3513 16.7219 15.9419 18.7633C16.9113 20.0006 17.917 21.086 18.7674 21.8233C19.6982 22.6233 20.1925 22.7819 20.3299 22.6726L20.4007 22.446ZM12.9529 13.2246L13.1955 13.3553C13.2206 13.3673 15.7941 14.7553 17.7966 17.3153C19.4794 19.4673 20.6513 21.574 20.6513 22.446C20.6513 22.6406 20.5941 22.782 20.4846 22.8646C20.1769 23.1073 19.5435 22.8206 18.6086 22.0113C17.7393 21.2659 16.7258 20.1673 15.7503 18.9166C13.7503 16.3579 13.0231 13.5246 13.0179 13.4953L12.9529 13.2246Z" fill="#F5F1A1"/>
<path d="M6.18495 11.0161C9.11161 12.4454 12.0048 12.5468 12.0048 12.5468C12.0048 12.5468 10.1464 10.3335 7.21574 8.90412C4.28348 7.47345 1.67974 6.78942 1.39281 7.36942C1.10628 7.95609 3.25588 9.58543 6.18495 11.0161Z" fill="#F19A38"/>
<path d="M11.7091 12.402C11.1544 11.8047 9.48938 10.1487 7.16125 9.01667C5.75085 8.32867 4.37058 7.79266 3.28098 7.50332C2.09712 7.19132 1.58418 7.26601 1.50498 7.42468L1.49192 7.48737C1.49192 8.0167 3.30805 9.47402 6.23978 10.9047C8.57058 12.042 10.8955 12.334 11.7091 12.402ZM1.24512 7.48737L1.28098 7.31804C1.45605 6.96737 2.14658 6.94868 3.34405 7.26068C4.45032 7.55268 5.84658 8.09671 7.26792 8.79271C10.1903 10.2167 12.081 12.446 12.0987 12.4687L12.281 12.6833L12.0023 12.6727C11.9747 12.67 9.04925 12.5527 6.13045 11.1287C3.70125 9.94338 1.24512 8.3127 1.24512 7.48737Z" fill="#F5F1A1"/>
<path d="M18.1409 16.8498C15.2103 15.4191 13.3513 13.2031 13.3513 13.2031C13.3513 13.2031 16.242 13.3045 19.1712 14.7352C22.1008 16.1645 24.2472 17.7951 23.9633 18.3778C23.6769 18.9645 21.0727 18.2791 18.1409 16.8498Z" fill="#F19A38"/>
<path d="M23.8655 18.263C23.8655 17.735 22.0494 16.2763 19.1171 14.847C16.7895 13.7083 14.4587 13.4163 13.6494 13.347C14.2014 13.9457 15.8681 15.599 18.1962 16.7377C19.6041 17.4244 20.9853 17.9617 22.0759 18.247C23.2639 18.5603 23.7733 18.4844 23.8519 18.3257L23.8655 18.263ZM13.0759 13.0684L13.3546 13.079C13.3827 13.0804 16.3082 13.1977 19.2238 14.623C21.6562 15.807 24.1119 17.4377 24.1119 18.263L24.0733 18.435C23.9014 18.7844 23.2093 18.8017 22.0109 18.487C20.9066 18.195 19.5109 17.6537 18.0895 16.9617C15.1666 15.5337 13.2707 13.3044 13.2587 13.2844L13.0759 13.0684Z" fill="#F5F1A1"/>
<path d="M12.6777 15.2787C11.3496 15.2787 10.2761 14.2027 10.2761 12.8747C10.2761 11.5467 11.3496 10.4707 12.6777 10.4707C14.0053 10.4707 15.0845 11.5467 15.0845 12.8747C15.0845 14.2027 14.0053 15.2787 12.6777 15.2787Z" fill="#F19A38"/>
<path d="M14.9616 12.8747C14.9616 11.6173 13.9349 10.5934 12.6777 10.5934C11.423 10.5934 10.3958 11.6173 10.3958 12.8747C10.3958 14.1333 11.423 15.1561 12.6777 15.1561C13.9349 15.1561 14.9616 14.1333 14.9616 12.8747ZM10.1521 12.8747C10.1521 11.4787 11.284 10.3467 12.6777 10.3467C14.0734 10.3467 15.2068 11.4787 15.2068 12.8747C15.2068 14.268 14.0734 15.404 12.6777 15.404C11.284 15.404 10.1521 14.268 10.1521 12.8747Z" fill="#F5F1A1"/>
</svg>
